<?xml version="1.0" standalone="no"?>
<!DOCTYPE svg PUBLIC "-//W3C//DTD SVG 20010904//EN"
 "http://www.w3.org/TR/2001/REC-SVG-20010904/DTD/svg10.dtd">
<svg version="1.0" xmlns="http://www.w3.org/2000/svg"
 width="2550.000000pt" height="2917.000000pt" viewBox="0 0 2550.000000 2917.000000"
 preserveAspectRatio="xMidYMid meet">

<g transform="translate(0.000000,2917.000000) scale(0.100000,-0.100000)"
fill="#000000" stroke="none">
<path d="M10383 18075 c0 -33 2 -45 4 -27 2 18 2 45 0 60 -2 15 -4 0 -4 -33z"/>
<path d="M10353 18085 c0 -22 2 -30 4 -17 2 12 2 30 0 40 -3 9 -5 -1 -4 -23z"/>
<path d="M10400 18105 c0 -11 48 -54 54 -48 3 4 6 -1 6 -10 0 -10 8 -17 20
-17 11 0 20 -4 20 -10 0 -5 9 -10 20 -10 11 0 20 -4 20 -10 0 -5 8 -10 18 -10
10 0 24 -9 32 -20 16 -23 50 -27 50 -6 0 18 -43 46 -70 46 -11 0 -34 14 -52
30 -17 17 -37 30 -44 30 -8 0 -14 5 -14 10 0 6 -9 10 -20 10 -11 0 -20 5 -20
10 0 6 -4 10 -10 10 -5 0 -10 -2 -10 -5z"/>
<path d="M10660 17915 c0 -32 3 -55 7 -52 7 8 5 98 -2 105 -3 3 -5 -21 -5 -53z"/>
<path d="M10351 15723 l-1 -2223 165 83 166 82 -3 1940 c-2 1767 -7 2277 -18
2100 -2 -33 -4 -68 -3 -77 0 -23 -13 -23 -19 0 -3 10 -15 18 -28 19 -12 1 -32
10 -44 21 -11 10 -43 29 -71 42 -27 13 -60 33 -73 44 -24 21 -24 21 -39 1 -15
-20 -15 -19 -8 3 4 13 2 29 -5 37 -6 8 -10 18 -7 22 3 4 2 35 -3 68 -4 33 -8
-940 -9 -2162z m75 1976 c19 -22 19 -22 -3 -10 -13 6 -23 16 -23 21 0 15 5 12
26 -11z m134 -83 c-7 -7 -13 -7 -20 0 -6 6 -3 10 10 10 13 0 16 -4 10 -10z
m47 -22 c9 -8 22 -13 29 -10 8 3 14 -1 14 -10 0 -13 -3 -13 -29 1 -17 8 -33
19 -36 25 -10 15 5 12 22 -6z"/>
<path d="M10392 17890 c0 -14 2 -19 5 -12 2 6 2 18 0 25 -3 6 -5 1 -5 -13z"/>
<path d="M10420 17900 c0 -5 5 -10 11 -10 5 0 7 5 4 10 -3 6 -8 10 -11 10 -2
0 -4 -4 -4 -10z"/>
<path d="M11620 17240 c0 -29 2 -51 4 -49 8 8 10 88 3 95 -4 4 -7 -17 -7 -46z"/>
<path d="M11651 17250 c0 -33 1 -34 11 -12 8 17 8 26 0 34 -9 9 -12 4 -11 -22z"/>
<path d="M11680 17230 c0 -13 7 -20 20 -20 11 0 20 -4 20 -10 0 -5 8 -10 18
-10 10 0 24 -9 32 -20 8 -11 25 -20 39 -20 13 0 32 -10 42 -21 11 -12 25 -19
34 -15 9 3 15 0 15 -9 0 -8 9 -15 20 -15 11 0 20 -4 20 -10 0 -5 7 -10 16 -10
9 0 25 -9 35 -21 10 -11 23 -18 29 -14 5 3 13 -1 16 -9 3 -9 10 -13 15 -10 5
3 9 -2 9 -10 0 -11 9 -16 30 -16 17 0 30 -4 30 -10 0 -5 6 -10 13 -10 6 0 26
-14 44 -30 18 -17 39 -30 47 -30 9 0 16 -4 16 -10 0 -5 9 -10 20 -10 11 0 20
-4 20 -10 0 -5 9 -10 20 -10 11 0 20 -4 20 -10 0 -5 7 -10 16 -10 9 0 29 -14
45 -31 16 -17 40 -32 54 -33 14 0 25 -4 25 -8 0 -5 7 -8 16 -8 9 0 29 -13 44
-30 17 -18 38 -30 53 -30 14 0 27 -4 29 -9 4 -13 33 -18 36 -6 2 6 -25 25 -59
43 -34 18 -74 41 -89 52 -16 11 -33 20 -39 20 -6 0 -11 3 -11 8 0 4 -30 23
-67 42 -38 19 -70 37 -73 41 -3 3 -12 8 -20 12 -8 4 -37 20 -65 37 -27 17 -61
36 -75 43 -14 6 -31 17 -38 24 -7 7 -20 13 -28 13 -8 0 -14 3 -14 8 0 4 -17
15 -37 25 -43 19 -97 49 -115 64 -7 6 -38 23 -68 39 -30 16 -57 31 -60 34 -9
11 -81 50 -91 50 -5 0 -9 -9 -9 -20z"/>
<path d="M11651 17184 c0 -11 3 -14 6 -6 3 7 2 16 -1 19 -3 4 -6 -2 -5 -13z"/>
<path d="M11623 17005 c0 -44 2 -61 4 -37 2 23 2 59 0 80 -2 20 -4 1 -4 -43z"/>
<path d="M11653 17005 c0 -38 2 -53 4 -32 2 20 2 52 0 70 -2 17 -4 1 -4 -38z"/>
<path d="M11860 16940 c0 -5 5 -10 11 -10 5 0 7 5 4 10 -3 6 -8 10 -11 10 -2
0 -4 -4 -4 -10z"/>
<path d="M11642 16895 c4 -39 -8 -34 -14 5 -2 14 -8 -939 -12 -2118 -5 -1179
-7 -2145 -4 -2147 2 -2 774 435 1716 973 l1711 977 -1 290 c-1 160 -4 246 -5
193 -4 -109 3 -106 -90 -45 -24 15 -46 27 -50 27 -3 0 -15 8 -25 17 -10 9 -29
18 -41 20 -12 2 -31 12 -42 23 -12 11 -26 20 -32 20 -5 0 -18 9 -28 20 -10 11
-21 17 -26 15 -4 -3 -10 -1 -14 5 -3 5 -25 19 -49 30 -23 10 -48 26 -55 34 -8
9 -17 14 -21 11 -5 -3 -11 -1 -15 5 -3 5 -25 18 -49 29 -24 10 -47 24 -51 30
-6 11 -36 26 -60 31 -5 1 -17 7 -25 14 -8 7 -30 19 -48 27 -18 8 -30 19 -28
26 3 8 -4 9 -27 2 l-32 -9 25 20 c24 19 34 23 45 18 2 -2 12 7 20 20 9 12 22
22 29 22 8 0 20 8 27 17 8 9 10 14 4 11 -32 -18 -1566 -914 -1592 -930 l-33
-20 0 274 1 273 527 298 c574 324 657 372 627 362 -11 -4 -25 -8 -30 -9 -6 -1
-21 -9 -35 -19 -13 -9 -30 -17 -37 -17 -7 0 -13 -5 -13 -10 0 -6 -15 -4 -36 5
-20 8 -41 12 -47 8 -6 -3 -7 -1 -3 5 4 7 -3 14 -18 18 -14 3 -31 12 -37 20 -7
8 -32 24 -55 34 -24 11 -45 24 -49 30 -3 5 -35 23 -70 40 -35 17 -67 35 -70
40 -4 6 -25 19 -49 30 -23 10 -49 26 -56 35 -7 8 -23 15 -35 15 -12 0 -28 7
-36 16 -17 21 -63 44 -87 44 -11 0 -22 9 -25 20 -4 15 -14 20 -39 20 -25 0
-36 6 -43 23 -6 13 -44 40 -96 67 -47 25 -101 55 -120 67 -19 13 -39 23 -45
23 -6 0 -17 7 -24 15 -7 8 -41 29 -75 45 -34 16 -68 37 -75 45 -7 8 -18 15
-25 15 -7 0 -18 7 -25 15 -7 8 -37 27 -69 41 -31 15 -64 34 -74 43 -10 8 -28
16 -40 18 -12 2 -31 12 -42 23 -12 11 -26 20 -32 20 -6 0 -16 7 -23 15 -7 8
-41 29 -76 45 -35 17 -66 35 -69 40 -3 5 -43 27 -89 50 -46 22 -89 47 -96 55
-7 8 -17 15 -22 15 -5 0 -28 13 -51 28 -23 15 -55 34 -72 42 -16 8 -38 21 -48
29 -24 20 -59 24 -69 9 -7 -10 -8 -9 -7 2 3 20 -11 50 -23 50 -6 0 -8 -16 -6
-35z m314 -200 c30 -16 25 -19 -13 -9 -13 4 -23 10 -23 15 0 12 3 11 36 -6z
m89 -55 c3 -6 -1 -7 -9 -4 -18 7 -21 14 -7 14 6 0 13 -4 16 -10z m175 -100 c0
-5 -2 -10 -4 -10 -3 0 -8 5 -11 10 -3 6 -1 10 4 10 6 0 11 -4 11 -10z m60 -36
c0 -2 -9 0 -20 6 -11 6 -20 13 -20 16 0 2 9 0 20 -6 11 -6 20 -13 20 -16z
m142 -82 c11 -13 8 -12 -19 2 -18 9 -33 18 -33 20 0 9 41 -8 52 -22z m38 -21
c0 -5 17 -15 37 -22 20 -6 46 -20 57 -31 14 -12 0 -8 -42 12 -60 30 -85 50
-63 50 6 0 11 -4 11 -9z m151 -88 c13 -17 13 -17 -6 -3 -11 8 -22 16 -24 17
-2 2 0 3 6 3 6 0 17 -8 24 -17z m59 -39 c0 -2 -9 0 -20 6 -11 6 -20 13 -20 16
0 2 9 0 20 -6 11 -6 20 -13 20 -16z m89 -40 c18 -9 30 -18 28 -20 -6 -7 -54
13 -62 25 -8 15 -4 14 34 -5z m84 -55 l32 -31 -37 24 c-21 12 -38 26 -38 31 0
13 11 7 43 -24z m102 -59 c3 -5 2 -10 -4 -10 -5 0 -13 5 -16 10 -3 6 -2 10 4
10 5 0 13 -4 16 -10z m80 -40 c30 -15 62 -40 51 -40 -15 0 -116 63 -116 73 0
5 8 4 18 -4 9 -8 31 -21 47 -29z m135 -58 c0 -13 -12 -22 -22 -16 -10 6 -1 24
13 24 5 0 9 -4 9 -8z m118 -90 c40 -26 16 -23 -29 3 -26 16 -34 23 -19 19 14
-4 35 -14 48 -22z m187 -112 c3 -5 -1 -10 -9 -10 -9 0 -16 5 -16 10 0 6 4 10
9 10 6 0 13 -4 16 -10z m135 -40 c0 -5 -5 -10 -12 -10 -6 0 -3 -9 8 -21 l19
-21 -33 19 c-21 12 -27 19 -17 21 8 2 15 8 15 13 0 5 5 9 10 9 6 0 10 -4 10
-10z m80 -80 c0 -5 -4 -10 -9 -10 -6 0 -13 5 -16 10 -3 6 1 10 9 10 9 0 16 -4
16 -10z m64 -6 c3 -9 -3 -11 -20 -8 -18 3 -23 1 -18 -7 4 -8 3 -9 -4 -5 -6 4
-9 13 -6 21 7 16 42 16 48 -1z m481 -304 c3 -5 1 -10 -4 -10 -6 0 -11 5 -11
10 0 6 2 10 4 10 3 0 8 -4 11 -10z m80 -50 c3 -5 2 -10 -4 -10 -5 0 -13 5 -16
10 -3 6 -2 10 4 10 5 0 13 -4 16 -10z m115 -40 c0 -5 -5 -10 -11 -10 -5 0 -7
-4 -4 -10 3 -5 0 -7 -9 -4 -12 5 -13 9 -3 20 14 16 27 18 27 4z m120 -107 c0
-2 -13 3 -30 12 -16 9 -30 20 -30 26 0 5 14 0 30 -13 17 -12 30 -23 30 -25z
m60 7 c0 -5 -4 -10 -10 -10 -5 0 -10 5 -10 10 0 6 5 10 10 10 6 0 10 -4 10
-10z m45 -60 c3 -6 -1 -7 -9 -4 -18 7 -21 14 -7 14 6 0 13 -4 16 -10z m52 -25
c17 -9 37 -23 44 -32 13 -15 12 -15 -16 0 -34 18 -73 46 -64 47 3 0 20 -7 36
-15z m88 -55 c3 -5 15 -10 26 -10 11 0 27 -6 35 -14 33 -34 2 -28 -56 11 -19
13 -29 23 -23 23 7 0 15 -4 18 -10z m126 -78 c-7 -2 -18 1 -23 6 -8 8 -4 9 13
5 13 -4 18 -8 10 -11z m114 -62 c3 -5 2 -10 -4 -10 -5 0 -13 5 -16 10 -3 6 -2
10 4 10 5 0 13 -4 16 -10z"/>
<path d="M11900 16920 c0 -5 5 -10 10 -10 6 0 10 5 10 10 0 6 -4 10 -10 10 -5
0 -10 -4 -10 -10z"/>
<path d="M12741 16894 c0 -11 3 -14 6 -6 3 7 2 16 -1 19 -3 4 -6 -2 -5 -13z"/>
<path d="M12742 16763 c-1 -61 -6 -114 -11 -117 -4 -3 -4 -31 1 -63 5 -32 7
-92 3 -134 -6 -72 -5 -77 15 -82 16 -4 19 -2 11 7 -7 8 -12 107 -14 257 -1
134 -3 194 -5 132z"/>
<path d="M12000 16800 c0 -5 5 -10 10 -10 6 0 10 5 10 10 0 6 -4 10 -10 10 -5
0 -10 -4 -10 -10z"/>
<path d="M12140 16780 c0 -5 5 -10 11 -10 5 0 7 5 4 10 -3 6 -8 10 -11 10 -2
0 -4 -4 -4 -10z"/>
<path d="M12140 16680 c0 -5 5 -10 10 -10 6 0 10 5 10 10 0 6 -4 10 -10 10 -5
0 -10 -4 -10 -10z"/>
<path d="M12670 16674 c0 -8 5 -12 10 -9 6 4 8 11 5 16 -9 14 -15 11 -15 -7z"/>
<path d="M12703 16620 c0 -30 2 -43 4 -27 2 15 2 39 0 55 -2 15 -4 2 -4 -28z"/>
<path d="M12662 16620 c0 -19 2 -27 5 -17 2 9 2 25 0 35 -3 9 -5 1 -5 -18z"/>
<path d="M13115 16585 c-52 -32 -40 -32 16 0 24 14 40 25 34 25 -5 0 -28 -11
-50 -25z"/>
<path d="M12965 16499 c-16 -10 -34 -21 -40 -23 -14 -5 -4 -12 25 -20 14 -3
19 -3 13 0 -7 3 -13 10 -13 15 0 6 3 8 8 6 4 -3 15 6 25 19 21 28 21 28 -18 3z"/>
<path d="M12660 16440 c0 -22 2 -40 4 -40 2 0 6 18 8 40 2 22 0 40 -4 40 -5 0
-8 -18 -8 -40z"/>
<path d="M12980 16471 c0 -6 12 -14 28 -17 15 -4 30 -11 33 -17 4 -5 18 -9 33
-9 14 0 26 -4 26 -9 0 -5 -5 -9 -11 -9 -5 0 -7 -5 -4 -11 4 -6 21 -9 38 -7 27
3 33 -1 35 -21 3 -19 8 -22 33 -19 20 3 29 0 29 -9 0 -7 7 -13 16 -13 9 0 25
-9 35 -21 10 -11 23 -18 29 -14 5 3 13 -1 16 -9 3 -9 14 -16 23 -16 9 0 23 -9
31 -20 8 -11 22 -20 32 -20 10 0 18 -4 18 -10 0 -5 9 -10 20 -10 11 0 20 -4
20 -10 0 -5 9 -10 20 -10 11 0 20 -4 20 -10 0 -5 7 -10 16 -10 9 0 25 -9 35
-21 9 -11 20 -20 24 -19 4 1 18 -8 32 -20 14 -12 31 -19 39 -16 8 3 14 -1 14
-9 0 -10 10 -15 30 -15 17 0 30 3 30 8 0 6 -52 37 -169 99 -25 13 -52 29 -60
37 -9 7 -41 27 -71 43 -30 17 -72 40 -93 52 -21 11 -44 21 -52 21 -8 0 -15 5
-15 11 0 6 -7 8 -16 5 -8 -3 -12 -2 -9 3 7 12 -34 41 -57 41 -10 0 -18 4 -18
8 0 5 -12 15 -27 23 -16 7 -39 21 -52 31 -13 10 -36 17 -50 16 -15 -1 -32 1
-39 6 -7 4 -12 3 -12 -3z"/>
<path d="M12701 16443 c0 -10 4 -27 9 -38 7 -17 9 -15 9 12 1 17 -3 35 -9 38
-5 3 -10 -2 -9 -12z"/>
<path d="M12860 16440 c-9 -6 -10 -10 -3 -10 6 0 15 5 18 10 8 12 4 12 -15 0z"/>
<path d="M12786 16395 c-11 -8 -15 -15 -9 -15 6 0 16 7 23 15 16 19 11 19 -14
0z"/>
<path d="M12680 16380 c0 -5 5 -10 10 -10 6 0 10 5 10 10 0 6 -4 10 -10 10 -5
0 -10 -4 -10 -10z"/>
<path d="M12980 16300 c0 -5 5 -10 11 -10 5 0 7 5 4 10 -3 6 -8 10 -11 10 -2
0 -4 -4 -4 -10z"/>
<path d="M13715 16060 c-3 -5 1 -10 9 -10 9 0 16 -4 16 -10 0 -5 8 -10 18 -10
10 0 24 -9 32 -20 8 -11 23 -20 33 -20 11 0 15 -4 11 -11 -5 -8 3 -10 24 -7
20 3 28 0 25 -8 -2 -6 10 -18 26 -25 17 -8 31 -17 31 -21 0 -5 12 -8 26 -8 14
0 23 -4 19 -10 -3 -5 3 -10 14 -10 11 0 23 -4 26 -10 3 -5 16 -10 28 -9 15 0
17 2 7 6 -8 3 -19 12 -23 19 -4 8 -12 14 -17 14 -5 0 -26 12 -47 26 -21 14
-54 33 -73 42 -19 9 -41 22 -48 29 -7 7 -25 16 -40 20 -14 3 -35 15 -46 25
-22 20 -42 23 -51 8z"/>
<path d="M13540 15980 c0 -5 5 -10 11 -10 5 0 7 5 4 10 -3 6 -8 10 -11 10 -2
0 -4 -4 -4 -10z"/>
<path d="M14224 15944 c-18 -14 -18 -15 4 -4 12 6 22 13 22 15 0 8 -5 6 -26
-11z"/>
<path d="M14078 15867 c-16 -6 -28 -15 -28 -19 0 -5 14 -2 30 7 17 9 30 18 30
20 0 3 -1 5 -2 4 -2 -1 -15 -6 -30 -12z"/>
<path d="M14009 15823 c-13 -15 -12 -15 9 -4 23 12 28 21 13 21 -5 0 -15 -7
-22 -17z"/>
<path d="M14495 15580 c-42 -25 -45 -29 -22 -27 15 1 31 7 35 12 4 6 16 17 26
25 18 14 19 13 13 -2 -4 -12 -2 -15 9 -11 11 4 12 9 3 19 -6 8 -12 14 -13 13
0 0 -23 -13 -51 -29z"/>
<path d="M14573 15573 c-20 -8 -15 -23 7 -23 11 0 20 -4 20 -10 0 -5 9 -10 20
-10 11 0 20 -4 20 -10 0 -5 8 -10 18 -10 10 0 24 -9 32 -20 8 -11 21 -20 30
-20 9 0 22 -9 30 -20 8 -11 25 -20 38 -20 14 0 36 -13 52 -30 15 -16 35 -30
44 -30 9 0 16 -4 16 -10 0 -5 9 -10 20 -10 11 0 20 -4 20 -10 0 -5 9 -10 20
-10 11 0 20 -4 20 -10 0 -5 9 -10 20 -10 19 0 24 -10 33 -70 3 -14 5 -5 5 20
2 55 -8 68 -78 106 -30 16 -57 32 -60 35 -3 3 -45 28 -95 54 -49 26 -97 53
-105 60 -8 6 -22 15 -30 19 -8 3 -28 15 -45 25 -33 21 -34 22 -52 14z"/>
<path d="M14380 15480 c0 -5 5 -10 11 -10 5 0 7 5 4 10 -3 6 -8 10 -11 10 -2
0 -4 -4 -4 -10z"/>
<path d="M14329 15443 c-13 -17 -13 -17 6 -3 11 8 22 16 24 17 2 2 0 3 -6 3
-6 0 -17 -8 -24 -17z"/>
<path d="M14377 15419 c7 -7 15 -10 18 -7 3 3 -2 9 -12 12 -14 6 -15 5 -6 -5z"/>
<path d="M14608 15353 c7 -3 16 -2 19 1 4 3 -2 6 -13 5 -11 0 -14 -3 -6 -6z"/>
<path d="M14660 15319 c0 -5 9 -9 20 -9 11 0 20 -4 20 -10 0 -5 5 -10 11 -10
8 0 8 4 0 14 -14 17 -51 28 -51 15z"/>
</g>
</svg>
