<svg version="1.1" id="Layer_1" xmlns="http://www.w3.org/2000/svg" xmlns:xlink="http://www.w3.org/1999/xlink" x="0px" y="0px"
	 width="100%" viewBox="0 0 263 219" enable-background="new 0 0 263 219" xml:space="preserve">
<path fill="#F2F7F8" opacity="1.000000" stroke="none" 
	d="
M264.000000,203.000000 
	C264.000000,208.648239 264.000000,214.296494 264.000000,220.000000 
	C224.979126,220.000000 185.958221,220.000000 146.561676,219.705017 
	C147.086700,218.955078 147.987381,218.500107 149.133118,218.385773 
	C157.903580,217.430771 166.428986,216.135101 175.340424,214.866364 
	C183.169586,211.962326 190.612701,209.031387 198.433441,206.096634 
	C203.195068,203.661682 207.579071,201.230560 212.282990,198.716400 
	C217.127670,194.489563 221.652451,190.345734 226.162384,186.173203 
	C226.147537,186.144501 226.091873,186.176910 226.360962,186.097443 
	C226.805695,185.702591 226.981308,185.387207 227.110474,185.065948 
	C227.064041,185.060059 227.076019,185.152924 227.337112,185.068634 
	C227.767197,184.669586 227.936188,184.354828 228.063843,184.034439 
	C228.022522,184.028824 228.069199,184.097961 228.359161,183.971878 
	C229.186493,182.964951 229.723877,182.084106 230.223328,181.163940 
	C230.185394,181.124619 230.141235,181.224564 230.406494,181.134155 
	C230.815445,180.708511 230.959152,180.373260 231.064713,180.032867 
	C231.026581,180.027725 231.046890,180.101944 231.283981,180.000687 
	C231.647003,179.593338 231.772934,179.287262 232.099899,178.871719 
	C232.564301,178.555267 232.680634,178.284988 232.798065,177.743103 
	C232.975113,177.366898 233.004044,177.199020 233.233124,176.906128 
	C233.505325,176.639359 233.666504,176.469269 233.632187,176.361298 
	C233.540985,176.074326 233.365494,175.814148 233.296692,175.108002 
	C233.300674,165.130875 233.231491,155.589081 233.346451,145.681671 
	C233.530594,135.618927 233.530594,125.921806 233.530594,115.406357 
	C231.386780,116.548355 230.136475,117.214386 228.656326,117.967178 
	C228.112427,118.197830 227.888641,118.429085 227.469879,118.792442 
	C226.712814,119.138695 226.241013,119.440186 225.488892,119.797974 
	C224.768372,120.189697 224.328140,120.525131 223.592682,120.887566 
	C222.817307,121.225082 222.337173,121.535606 221.608856,121.895294 
	C221.100632,122.152092 220.840591,122.359741 220.282181,122.630997 
	C219.316956,123.123604 218.650085,123.552589 217.726990,124.011002 
	C217.212448,124.257195 216.954178,124.473961 216.426300,124.729980 
	C215.724945,125.068100 215.293198,125.366982 214.512222,125.765968 
	C209.427719,128.522903 204.692459,131.179749 199.656281,133.878235 
	C198.881531,134.266876 198.407715,134.613892 197.961761,134.978882 
	C197.989609,134.996857 197.984161,134.930771 197.666580,134.932861 
	C196.864502,135.266418 196.379990,135.597870 195.940613,135.942871 
	C195.985733,135.956421 195.930740,135.879898 195.619690,135.947357 
	C194.478104,136.623688 193.647583,137.232559 192.877991,137.837173 
	C192.938904,137.832916 192.832535,137.772888 192.483078,137.813934 
	C189.724182,139.213501 187.314743,140.572006 184.924713,141.926498 
	C184.944092,141.922485 184.910965,141.891388 184.561493,141.948029 
	C178.488281,145.290863 172.764511,148.577057 166.713623,151.827332 
	C165.877731,152.155014 165.368973,152.518631 164.852280,152.863190 
	C164.844330,152.844147 164.808746,152.821899 164.458939,152.883011 
	C157.092133,156.391312 150.035812,159.779938 144.462585,165.883759 
	C141.408005,166.576050 138.704529,167.284760 135.708282,167.965851 
	C134.856018,168.090012 134.296524,168.241776 133.439789,168.359222 
	C132.782593,168.479691 132.422638,168.634491 131.782135,168.746613 
	C131.318970,168.753098 131.136307,168.802261 130.636215,168.695404 
	C129.622589,168.503296 128.926361,168.467194 127.906784,168.272491 
	C126.089462,167.607880 124.492859,167.295227 123.117775,166.565292 
	C112.116302,160.725357 101.156731,154.806473 90.114861,148.672241 
	C90.045395,148.432693 89.795784,148.000626 89.704170,147.683624 
	C87.413193,146.194199 85.213829,145.021774 82.943817,143.771667 
	C82.873177,143.694000 82.667694,143.737274 82.479523,143.472778 
	C81.886757,143.074448 81.482162,142.940613 81.084564,142.852509 
	C81.091545,142.898270 81.166557,142.844040 81.004913,142.570267 
	C79.903709,141.848618 78.964149,141.400757 78.017502,140.979233 
	C78.010422,141.005569 78.049911,140.967682 77.877914,140.720764 
	C77.158096,140.253845 76.610283,140.033829 75.918427,139.600525 
	C75.298782,139.207687 74.823189,139.028152 74.148239,138.568619 
	C72.342987,137.464691 70.737106,136.640778 69.075325,135.873489 
	C69.019432,135.930130 69.160286,135.856049 68.999878,135.581696 
	C67.890114,134.876022 66.940758,134.444687 65.995392,134.006378 
	C65.999390,133.999390 65.985664,134.010483 65.821304,133.764618 
	C65.114319,133.318268 64.571678,133.117798 64.022751,132.954956 
	C64.016457,132.992584 64.075653,132.944443 63.916702,132.687225 
	C63.201252,132.217972 62.644756,132.005951 62.083553,131.840973 
	C62.078850,131.888000 62.165661,131.850616 61.984894,131.558548 
	C60.533981,130.890152 59.263832,130.513824 57.709297,129.967850 
	C55.978783,128.869659 54.532654,127.941109 53.018749,126.694778 
	C52.364937,126.131798 51.778900,125.886604 51.162910,125.709854 
	C51.132957,125.778290 51.257942,125.696434 51.079052,125.411392 
	C47.098564,123.019745 43.296967,120.913147 39.247894,118.527344 
	C37.514000,117.454155 36.027584,116.660156 33.986637,115.569946 
	C33.986637,135.818237 33.923283,155.096191 34.082096,174.372330 
	C34.098446,176.356476 35.060959,178.594635 36.226578,180.267502 
	C49.809227,199.760742 69.424797,209.424149 92.107010,214.231842 
	C92.210831,214.292313 92.386536,214.128387 92.684799,214.416290 
	C96.320824,215.415878 99.658585,216.127548 103.408821,216.907730 
	C108.214203,217.984161 112.607101,218.992081 117.000000,220.000000 
	C78.397995,220.000000 39.795994,220.000000 1.000000,220.000000 
	C1.000000,171.645950 1.000000,123.291634 1.316597,74.580139 
	C3.726011,76.514091 5.818827,78.805222 7.928064,81.072784 
	C7.944485,81.049217 7.888132,81.053101 7.987761,81.296875 
	C8.393447,81.692085 8.699504,81.843521 9.002799,81.997482 
	C9.000038,82.000000 9.004079,81.993813 9.160702,82.285332 
	C11.197054,83.742531 13.076784,84.908211 14.972122,86.037361 
	C14.987728,86.000824 14.926104,86.051003 15.102022,86.332367 
	C16.842691,87.426483 18.407440,88.239235 19.983339,89.024704 
	C19.994488,88.997429 19.947149,89.032608 20.091558,89.299866 
	C20.796062,89.780823 21.356159,89.994522 21.921646,90.150360 
	C21.927040,90.092506 21.812735,90.113548 21.917070,90.366020 
	C22.350906,90.740135 22.680407,90.861771 23.005482,90.992050 
	C23.001053,91.000694 23.016642,90.986137 23.191658,91.222694 
	C23.896021,91.683342 24.425369,91.907433 24.957592,92.088753 
	C24.960466,92.045975 24.885599,92.087776 25.043484,92.361694 
	C26.129137,93.104515 27.056904,93.573425 28.122574,94.273224 
	C28.747627,94.704964 29.234781,94.905807 29.859047,95.349678 
	C30.336180,95.712936 30.676203,95.833160 31.015465,95.980133 
	C31.014704,96.006889 31.053825,95.970352 31.219555,96.209808 
	C31.912113,96.668518 32.438946,96.887772 32.970161,97.066750 
	C32.974545,97.026466 32.904629,97.067459 33.067657,97.357025 
	C34.782211,98.483459 36.333736,99.320335 37.912338,100.113113 
	C37.939415,100.069008 37.839256,100.095078 37.946930,100.335617 
	C38.356869,100.746094 38.659134,100.916039 38.979126,101.051147 
	C38.996849,101.016304 38.926426,101.050232 39.040627,101.344757 
	C39.745564,101.832962 40.336304,102.026649 41.103302,102.500351 
	C42.465183,103.379753 43.650806,103.979149 45.055981,104.815582 
	C62.637074,115.953613 79.928581,126.968567 97.393616,137.701141 
	C104.679726,142.178589 112.335045,146.055252 120.113029,150.472412 
	C129.369186,152.863464 138.182404,153.481613 146.717484,148.056717 
	C149.731293,146.014404 152.416977,144.025024 155.339478,142.002899 
	C155.576294,141.970169 156.026840,141.810181 156.286926,141.842133 
	C156.748901,141.611435 156.950760,141.348801 157.097977,141.068390 
	C157.043320,141.050629 157.117188,141.138687 157.413361,140.987473 
	C159.139938,139.893555 160.570374,138.950867 162.000702,138.004395 
	C162.000610,138.000610 162.008392,138.003113 162.300232,137.953461 
	C162.869736,137.635803 163.147369,137.367783 163.680435,137.076569 
	C164.298950,136.724701 164.662033,136.396042 165.309219,136.005005 
	C165.859207,135.670120 166.125122,135.397614 166.569809,135.126648 
	C166.748581,135.128159 167.002045,134.875946 167.273636,134.849258 
	C168.097351,134.364502 168.649475,133.906433 169.439926,133.356171 
	C169.794098,133.139069 169.909958,133.014160 170.287323,132.862854 
	C170.777893,132.583572 171.006943,132.330658 171.535065,132.022125 
	C172.594559,131.343018 173.354980,130.719513 174.067169,130.068802 
	C174.018921,130.041595 174.076843,130.136017 174.316986,130.095291 
	C174.557114,130.054565 174.948563,129.764618 175.276337,129.701385 
	C179.398407,127.068405 183.192734,124.498680 187.324646,121.868011 
	C196.527664,115.991066 205.393097,110.175049 214.245499,104.341370 
	C214.232468,104.323692 214.233795,104.280746 214.558472,104.222366 
	C215.758331,103.489662 216.633499,102.815338 217.659790,102.155670 
	C217.810913,102.170334 218.002533,101.934776 218.263824,101.906837 
	C218.724808,101.605179 218.924484,101.331459 219.084000,101.052597 
	C219.043839,101.047470 219.051117,101.128120 219.328842,101.084145 
	C219.833237,100.769745 220.059921,100.499329 220.266479,100.280457 
	C220.246353,100.332016 220.354355,100.356270 220.666046,100.282990 
	C222.382889,99.210892 223.788025,98.212067 225.515274,97.144539 
	C227.264603,96.092216 228.691818,95.108612 230.369843,94.075241 
	C230.853882,93.788002 231.087128,93.550514 231.594955,93.244293 
	C232.280609,92.821907 232.691681,92.468262 233.412979,92.068306 
	C234.534973,91.405144 235.346756,90.788292 236.461960,90.109779 
	C237.580521,89.443695 238.395660,88.839272 239.514618,88.162285 
	C240.559677,87.399918 241.300903,86.710106 242.018677,86.010574 
	C241.995239,86.000847 242.005920,86.050491 242.294037,86.002365 
	C243.000702,85.642479 243.419250,85.330734 244.047134,84.744278 
	C246.566483,82.682068 248.876495,80.894577 251.529755,78.979614 
	C255.915359,76.901428 259.957672,74.950714 264.000000,73.000000 
	C264.000000,113.020897 264.000000,153.041794 263.687134,193.371567 
	C261.544830,190.787903 259.715424,187.895340 257.961029,184.539703 
	C257.960724,160.403198 257.885406,136.729782 257.887634,112.604294 
	C257.613922,108.860016 257.262634,105.567810 256.594482,102.180237 
	C255.841614,102.127045 255.405594,102.169228 254.630066,102.136490 
	C253.682465,102.335472 253.074387,102.609367 252.145309,102.884048 
	C250.182022,103.842110 248.539764,104.799400 246.542572,105.848068 
	C245.756042,106.954956 245.324417,107.970474 244.800705,109.445694 
	C244.756058,114.587265 244.803513,119.269127 244.678116,124.321350 
	C244.613373,137.139038 244.721481,149.586365 244.749771,162.443573 
	C244.700333,165.322372 244.730713,167.791306 244.601349,170.627319 
	C244.576828,173.118347 244.712067,175.242325 244.776031,177.518921 
	C244.704727,177.671539 244.874237,177.962662 244.773727,178.385727 
	C244.013931,181.534546 244.217697,185.076035 242.545914,186.844818 
	C235.320801,194.489090 235.522766,203.277863 243.735291,210.229782 
	C249.802338,215.365555 256.465393,214.265686 260.583832,207.532623 
	C261.566376,205.926239 262.853119,204.505890 264.000000,203.000000 
z"/>
<path fill="#F5F7F7" opacity="1.000000" stroke="none" 
	d="
M134.000000,1.000000 
	C177.237381,1.000000 220.474777,1.000000 264.000000,1.000000 
	C264.000000,23.353405 264.000000,45.708042 263.717285,68.354431 
	C261.395538,66.754860 259.633453,64.355194 257.266541,63.065823 
	C249.611649,58.895882 241.734528,55.133911 233.662933,50.999084 
	C229.572784,48.945118 225.762741,47.106823 221.731781,45.146172 
	C221.347839,45.065804 221.184814,45.107792 220.793976,45.080338 
	C220.566193,45.010891 220.091354,44.973927 219.995911,44.731167 
	C219.609512,44.377033 219.318527,44.265663 218.803833,44.081631 
	C218.580124,44.008972 218.112198,43.960369 217.971390,43.639145 
	C207.201965,37.952827 196.573364,32.587734 185.663635,27.005371 
	C184.270096,26.497066 183.157654,26.206032 182.029388,25.949036 
	C182.013565,25.983076 182.086868,25.966858 181.992950,25.714085 
	C181.608383,25.282726 181.317734,25.104143 181.020340,24.960724 
	C181.013611,24.995890 181.071671,24.953966 180.904510,24.696388 
	C180.180176,24.194002 179.623001,23.949198 178.881119,23.470615 
	C177.786072,22.876310 176.875717,22.515781 175.726349,21.934643 
	C174.687119,21.429417 173.886917,21.144802 173.049866,20.894951 
	C173.013046,20.929710 173.113113,20.914074 172.954712,20.644707 
	C172.217239,20.158560 171.638199,19.941778 170.945251,19.524403 
	C170.569458,19.114933 170.277466,19.056543 169.684540,18.921871 
	C163.280914,15.792690 157.148148,12.890275 150.923187,9.685532 
	C150.239746,9.195151 149.648514,9.007099 149.058136,8.865107 
	C149.059006,8.911166 149.146057,8.880980 148.980240,8.617128 
	C148.228622,8.171108 147.642807,7.988941 147.056854,7.855900 
	C147.056717,7.905025 147.150513,7.875806 146.956451,7.585528 
	C143.504517,5.886105 140.246643,4.476959 136.709503,2.922195 
	C136.012772,2.741571 135.595291,2.706566 135.030060,2.449751 
	C134.588211,1.818628 134.294098,1.409314 134.000000,1.000000 
z"/>
<path fill="#F5F7F7" opacity="1.000000" stroke="none" 
	d="
M1.000001,68.000000 
	C1.000000,45.717400 1.000000,23.434797 1.000000,1.000000 
	C42.687443,1.000000 84.375061,1.000000 126.495300,1.330713 
	C125.889915,2.355715 124.851921,3.050003 123.829468,3.753592 
	C123.845016,3.762892 123.850243,3.774053 123.518158,3.808968 
	C122.063942,4.507130 120.941818,5.170376 119.873520,5.819667 
	C119.927345,5.805711 119.825409,5.761250 119.508240,5.801635 
	C118.106018,6.471951 117.020966,7.101882 115.577484,7.803337 
	C106.392296,12.541312 97.565521,17.207764 88.391281,21.916386 
	C81.909958,25.231270 75.776093,28.503988 69.302383,31.822254 
	C65.939896,33.486546 62.917248,35.105286 59.557453,36.786476 
	C57.717972,37.767143 56.215645,38.685364 54.684929,39.591099 
	C54.656540,39.578613 54.600204,39.552662 54.247356,39.611214 
	C50.595966,41.454277 47.297428,43.238792 43.723129,45.045380 
	C43.215496,45.330116 42.983616,45.592789 42.815464,45.838444 
	C42.879192,45.821430 42.802479,45.714104 42.453243,45.776493 
	C38.379772,47.806259 34.655537,49.773636 30.625845,51.793694 
	C29.845562,52.206810 29.370737,52.567242 28.917904,52.928253 
	C28.939896,52.928829 28.905226,52.895012 28.554970,52.939819 
	C25.797287,54.306587 23.389858,55.628544 20.683411,56.961578 
	C19.908293,57.305882 19.432194,57.639103 18.972855,57.989174 
	C18.989613,58.006023 18.984875,57.958847 18.656731,57.987137 
	C17.996778,58.280750 17.664972,58.546070 17.101162,58.741821 
	C16.537056,58.705540 16.243126,58.829391 15.636753,59.016354 
	C13.830228,59.640732 12.374315,60.292564 10.948404,60.967087 
	C10.978407,60.989780 10.974039,60.914673 10.664724,60.922985 
	C9.864753,61.258591 9.374095,61.585880 8.921721,61.934383 
	C8.960006,61.955593 8.948924,61.868763 8.674244,61.896225 
	C8.156132,62.176414 7.912700,62.429138 7.661559,62.650215 
	C7.653849,62.618561 7.588806,62.614750 7.297764,62.697121 
	C6.259277,63.442471 5.511833,64.105446 4.760855,64.786469 
	C4.757321,64.804520 4.750200,64.759567 4.456480,64.877121 
	C3.108507,65.996445 2.054254,66.998222 1.000001,68.000000 
z"/>
<path fill="#127FA5" opacity="1.000000" stroke="none" 
	d="
M92.386536,214.128387 
	C92.386536,214.128387 92.210831,214.292313 92.050018,213.862946 
	C85.582916,210.272797 79.276619,207.112015 72.970322,203.951248 
	C72.678955,204.332260 72.387581,204.713272 72.096207,205.094284 
	C72.183327,203.209702 72.270439,201.325134 72.363777,199.306061 
	C69.235207,199.306061 66.354271,199.306061 63.473339,199.306061 
	C63.241207,198.923401 63.009071,198.540726 62.776939,198.158066 
	C64.919800,196.685318 67.062653,195.212585 69.205513,193.739838 
	C69.208458,193.487808 69.211411,193.235764 69.214355,192.983719 
	C65.301537,193.662262 61.388718,194.340805 57.475895,195.019348 
	C57.210957,194.703003 56.946014,194.386658 56.681072,194.070297 
	C59.820095,190.843933 58.317768,188.345551 55.821060,186.408768 
	C52.572388,183.888687 51.603714,178.491425 46.148766,178.688522 
	C45.804184,178.700974 45.439808,177.723862 45.058128,177.227478 
	C43.422901,175.100891 42.152676,171.741943 40.060841,171.109451 
	C35.186836,169.635712 36.021152,166.268768 36.009869,162.939285 
	C35.985085,155.626068 36.003559,148.312698 36.350063,141.037170 
	C40.327667,144.586365 43.993675,148.063309 47.585716,151.615051 
	C65.243889,169.075119 82.924339,186.513062 100.492599,204.063232 
	C104.019630,207.586685 107.093597,211.563629 109.721855,214.580170 
	C113.220779,215.867966 116.116264,216.933670 119.008911,218.332825 
	C119.004059,219.110840 119.002029,219.555420 119.000000,220.000000 
	C118.555557,220.000000 118.111107,220.000000 117.333328,220.000000 
	C112.607101,218.992081 108.214203,217.984161 103.395157,216.533356 
	C102.227570,215.400421 101.527069,214.177353 100.737305,214.116699 
	C97.970329,213.904221 95.172592,214.092377 92.386536,214.128387 
z"/>
<path fill="#1686AE" opacity="1.000000" stroke="none" 
	d="
M53.086525,127.012558 
	C54.532654,127.941109 55.978783,128.869659 57.794907,130.319519 
	C59.498486,131.177429 60.832073,131.514023 62.165661,131.850616 
	C62.165661,131.850616 62.078850,131.888000 62.209522,132.133118 
	C62.918682,132.566956 63.497166,132.755707 64.075653,132.944443 
	C64.075653,132.944443 64.016457,132.992584 64.172981,133.216156 
	C64.881561,133.629974 65.433609,133.820236 65.985664,134.010483 
	C65.985664,134.010483 65.999390,133.999390 66.057053,134.358093 
	C67.129906,135.096527 68.145096,135.476288 69.160286,135.856049 
	C69.160286,135.856049 69.019432,135.930130 69.087021,136.249115 
	C70.885605,137.328278 72.616600,138.088440 74.347595,138.848602 
	C74.823189,139.028152 75.298782,139.207687 76.053169,139.884232 
	C76.904610,140.576721 77.477257,140.772202 78.049911,140.967682 
	C78.049911,140.967682 78.010422,141.005569 78.068207,141.336594 
	C79.139511,142.059753 80.153038,142.451904 81.166557,142.844040 
	C81.166557,142.844040 81.091545,142.898270 81.251923,143.143127 
	C81.830765,143.504410 82.249229,143.620850 82.667694,143.737274 
	C82.667694,143.737274 82.873177,143.694000 82.978424,144.113098 
	C83.732811,145.683685 84.381943,146.835175 84.694283,148.045471 
	C84.059967,148.849075 83.762451,149.593842 83.464935,150.338608 
	C84.643188,150.225739 85.821442,150.112869 86.999847,150.000000 
	C87.000000,150.000000 87.000305,150.000000 86.999664,150.384369 
	C86.844749,152.338242 86.690468,153.907730 86.607895,154.747742 
	C89.278984,155.342422 92.182518,155.138016 93.715393,156.488907 
	C98.397537,160.615204 102.463440,165.431488 106.953186,169.789673 
	C108.921349,171.700180 111.335724,173.150986 113.807579,175.005676 
	C115.255997,177.100433 116.900208,179.747238 118.830307,182.165909 
	C119.936852,183.552582 121.595406,184.482895 122.853226,185.767670 
	C126.902527,189.903717 131.073669,193.944183 134.832077,198.334564 
	C138.498199,202.617096 141.660767,207.327438 145.176727,211.744659 
	C145.830688,212.566238 147.082581,212.952377 148.111252,213.424591 
	C149.299789,213.970200 150.546692,214.388672 151.768250,214.862320 
	C150.808182,215.923248 149.848114,216.984192 148.888046,218.045135 
	C147.987381,218.500107 147.086700,218.955078 146.093018,219.705017 
	C145.250000,220.000000 144.500000,220.000000 143.382904,219.761536 
	C143.015793,219.523071 142.985107,219.046860 142.729675,218.758331 
	C140.649704,218.311996 138.825150,218.154175 137.000381,217.558426 
	C138.816284,208.470093 132.026764,210.253860 128.947479,209.914215 
	C126.517120,206.428009 125.190811,203.803986 123.222397,201.815628 
	C106.947586,185.375839 90.540932,169.066681 74.207436,152.684814 
	C71.063240,149.531311 68.064774,146.232483 64.568214,143.000580 
	C60.485439,142.886642 55.629398,144.257187 57.520622,137.705383 
	C53.842083,134.944656 50.329269,132.377487 46.925030,129.673630 
	C46.452240,129.298111 46.172966,128.099152 46.413692,127.547264 
	C46.737404,126.805138 47.564312,126.064301 48.339283,125.794998 
	C49.217529,125.489807 50.277168,125.706589 51.257942,125.696434 
	C51.257942,125.696434 51.132957,125.778290 51.244190,126.029251 
	C51.932457,126.524330 52.509491,126.768440 53.086525,127.012558 
M92.451378,159.712463 
	C92.714729,159.988800 92.978081,160.265152 93.241432,160.541489 
	C93.355850,160.432373 93.470268,160.323257 93.584686,160.214142 
	C93.321022,159.937775 93.057358,159.661392 92.451378,159.712463 
z"/>
<path fill="#1EACE0" opacity="1.000000" stroke="none" 
	d="
M233.943039,51.214745 
	C241.734528,55.133911 249.611649,58.895882 257.266541,63.065823 
	C259.633453,64.355194 261.395538,66.754860 263.717285,68.823090 
	C264.000000,70.066673 264.000000,71.133339 264.000000,72.600006 
	C259.957672,74.950714 255.915359,76.901428 251.232788,78.775482 
	C250.190781,76.401840 249.789047,74.104851 249.329575,71.477844 
	C248.555054,71.234558 247.137360,71.220757 246.455933,70.505516 
	C241.853989,65.675186 237.291397,60.792755 233.042816,55.656891 
	C232.437500,54.925152 233.599167,52.731686 233.943039,51.214745 
z"/>
<path fill="#187FA2" opacity="1.000000" stroke="none" 
	d="
M264.000000,202.666672 
	C262.853119,204.505890 261.566376,205.926239 260.583832,207.532623 
	C256.465393,214.265686 249.802338,215.365555 243.735291,210.229782 
	C235.522766,203.277863 235.320801,194.489090 242.545914,186.844818 
	C244.217697,185.076035 244.013931,181.534546 245.011749,178.499329 
	C245.567688,178.459625 245.785065,178.729385 246.001190,179.448990 
	C245.509506,183.770401 245.019089,187.641968 244.456421,192.083923 
	C245.501190,192.738602 248.600479,193.573883 249.484161,195.451752 
	C251.714355,200.191025 255.286957,202.467850 259.683777,203.529922 
	C261.267029,202.601898 262.633514,201.800964 264.000000,201.000000 
	C264.000000,201.444443 264.000000,201.888901 264.000000,202.666672 
z"/>
<path fill="#1886AB" opacity="1.000000" stroke="none" 
	d="
M264.000000,200.562500 
	C262.633514,201.800964 261.267029,202.601898 259.683777,203.529922 
	C255.286957,202.467850 251.714355,200.191025 249.484161,195.451752 
	C248.600479,193.573883 245.501190,192.738602 244.456421,192.083923 
	C245.019089,187.641968 245.509506,183.770401 246.355804,179.487854 
	C248.048813,180.192764 249.846024,181.056305 250.625702,182.477921 
	C252.172470,185.298203 254.007812,186.341949 257.223083,184.991425 
	C257.444000,184.998398 257.886017,185.002792 257.886017,185.002792 
	C259.715424,187.895340 261.544830,190.787903 263.687134,193.840225 
	C264.000000,196.041672 264.000000,198.083328 264.000000,200.562500 
z"/>
<path fill="#1684A9" opacity="1.000000" stroke="none" 
	d="
M137.000610,217.996338 
	C138.825150,218.154175 140.649704,218.311996 142.265259,218.730087 
	C137.354706,219.030624 132.653122,219.070892 127.583893,219.063736 
	C126.144165,219.344208 125.072083,219.672104 124.000000,220.000000 
	C122.611107,220.000000 121.222221,220.000000 119.416664,220.000000 
	C119.002029,219.555420 119.004059,219.110840 119.393143,218.331299 
	C125.189507,217.660080 123.372963,213.997910 123.382797,211.046997 
	C127.561485,212.013351 131.786911,212.395309 131.639450,217.996338 
	C133.710953,217.996338 135.355789,217.996338 137.000610,217.996338 
z"/>
<path fill="#287B99" opacity="1.000000" stroke="none" 
	d="
M1.000001,68.428467 
	C2.054254,66.998222 3.108507,65.996445 4.400696,65.255676 
	C3.009186,69.934769 2.426311,74.076752 6.813024,77.514549 
	C7.619559,78.146614 7.567432,79.874352 7.911643,81.096352 
	C5.818827,78.805222 3.726011,76.514091 1.316597,74.111481 
	C1.000000,72.285645 1.000000,70.571281 1.000001,68.428467 
z"/>
<path fill="#209AC8" opacity="1.000000" stroke="none" 
	d="
M123.813919,3.744289 
	C124.851921,3.050003 125.889915,2.355715 126.963959,1.330713 
	C129.041672,1.000000 131.083328,1.000000 133.562500,1.000000 
	C134.294098,1.409314 134.588211,1.818628 134.806274,2.765894 
	C133.487534,3.537500 132.244858,3.771154 130.554382,4.003597 
	C128.009048,3.916354 125.911484,3.830321 123.813919,3.744289 
z"/>
<path fill="#7EC3D9" opacity="1.000000" stroke="none" 
	d="
M127.951553,219.111145 
	C132.653122,219.070892 137.354706,219.030624 142.520691,219.018616 
	C142.985107,219.046860 143.015793,219.523071 143.007904,219.761536 
	C138.310745,220.000000 133.621490,220.000000 128.464767,219.777191 
	C127.997307,219.554398 127.951553,219.111145 127.951553,219.111145 
z"/>
<path fill="#AFDEF1" opacity="1.000000" stroke="none" 
	d="
M127.583893,219.063721 
	C127.951553,219.111145 127.997307,219.554398 127.998657,219.777191 
	C126.933327,220.000000 125.866646,220.000000 124.399986,220.000000 
	C125.072083,219.672104 126.144165,219.344208 127.583893,219.063721 
z"/>
<path fill="#2296C1" opacity="1.000000" stroke="none" 
	d="
M88.738747,21.874216 
	C97.565521,17.207764 106.392296,12.541312 115.552231,8.172245 
	C112.699127,10.816447 109.512856,13.163264 105.558884,16.075525 
	C108.120773,18.632000 110.773735,21.206867 113.346474,23.859539 
	C123.037415,33.851582 132.582886,43.988041 142.413223,53.840546 
	C150.831390,62.277668 159.707489,70.258072 168.120071,78.700531 
	C177.274567,87.887573 185.638184,97.819290 196.062973,105.769127 
	C202.368073,110.577339 204.152451,109.637283 210.294006,104.117439 
	C211.810608,104.269089 213.034576,104.314064 214.258530,104.359039 
	C205.393097,110.175049 196.527664,115.991066 187.170364,121.575912 
	C184.515961,119.304710 182.639282,116.030273 180.138428,115.451111 
	C171.927902,113.549660 168.345505,106.217110 162.537338,101.598663 
	C157.750946,97.792694 153.959335,92.752731 149.605637,88.380333 
	C145.954483,84.713509 142.033112,81.314857 138.400162,77.631004 
	C131.648422,70.784676 125.049423,63.788013 118.329033,56.910412 
	C114.032471,52.513336 110.062492,47.633671 105.167641,44.026817 
	C99.281525,39.689541 96.885078,31.351334 88.769234,30.200808 
	C90.216362,29.037317 91.568031,27.950577 92.919701,26.863838 
	C91.526047,25.200630 90.132401,23.537422 88.738747,21.874216 
z"/>
<path fill="#1787AE" opacity="1.000000" stroke="none" 
	d="
M43.998886,45.023312 
	C47.297428,43.238792 50.595966,41.454277 54.354816,40.033783 
	C55.607933,41.880554 56.042221,43.834187 57.258747,44.760414 
	C61.407295,47.919003 66.245117,50.269321 70.031540,53.778687 
	C73.675125,57.155666 76.315979,61.607841 79.460503,65.537109 
	C79.938614,66.134537 80.812042,66.396904 81.411453,66.918930 
	C85.835426,70.771759 90.315872,74.566422 94.588867,78.581253 
	C95.668442,79.595612 95.708626,82.104973 96.829330,82.623001 
	C103.537285,85.723625 108.399025,90.439240 111.329597,97.235352 
	C111.653954,97.987534 112.782501,98.420609 113.581146,98.934784 
	C115.203918,99.979546 117.205849,100.666756 118.437798,102.048508 
	C124.986664,109.393677 131.888474,116.359955 139.281158,122.858147 
	C140.611450,124.027481 142.265335,125.658325 142.403793,127.198853 
	C142.824280,131.877411 145.061340,133.481400 149.912125,132.107346 
	C149.237885,134.247787 148.763550,135.753616 148.546371,136.443085 
	C151.063828,138.590500 153.083252,140.313065 155.102661,142.035645 
	C152.416977,144.025024 149.731293,146.014404 146.285339,148.028229 
	C143.350250,148.368256 141.175430,148.683823 138.833221,148.688873 
	C136.406647,146.016159 134.237778,143.558563 131.866959,141.314285 
	C128.376907,138.010513 124.521202,135.069809 121.216690,131.598068 
	C114.561012,124.605583 108.368332,117.167145 101.619194,110.270302 
	C94.499443,102.994736 86.914909,96.176010 79.607582,89.081322 
	C74.673050,84.290382 69.919525,79.313118 64.988693,74.518257 
	C59.956837,69.625160 54.525448,65.106903 49.843147,59.907475 
	C47.876816,57.723984 46.439919,56.065399 43.331345,55.480133 
	C42.260887,55.278599 41.616722,51.429520 41.307571,49.174095 
	C41.161591,48.109074 42.265106,46.872787 42.802475,45.714104 
	C42.802479,45.714104 42.879192,45.821430 43.076744,45.790287 
	C43.515831,45.513866 43.757359,45.268589 43.998886,45.023312 
z"/>
<path fill="#1D90B9" opacity="1.000000" stroke="none" 
	d="
M88.391281,21.916386 
	C90.132401,23.537422 91.526047,25.200630 92.919701,26.863838 
	C91.568031,27.950577 90.216362,29.037317 88.769234,30.200808 
	C96.885078,31.351334 99.281525,39.689541 105.167641,44.026817 
	C110.062492,47.633671 114.032471,52.513336 118.329033,56.910412 
	C125.049423,63.788013 131.648422,70.784676 138.400162,77.631004 
	C142.033112,81.314857 145.954483,84.713509 149.605637,88.380333 
	C153.959335,92.752731 157.750946,97.792694 162.537338,101.598663 
	C168.345505,106.217110 171.927902,113.549660 180.138428,115.451111 
	C182.639282,116.030273 184.515961,119.304710 186.832779,121.636841 
	C183.192734,124.498680 179.398407,127.068405 175.149811,129.582535 
	C174.489288,129.729950 174.283066,129.932983 174.076843,130.136017 
	C174.076843,130.136017 174.018921,130.041595 173.684341,130.033997 
	C171.825089,129.421890 170.048233,129.134079 168.820602,128.156525 
	C164.197525,124.475189 159.571945,120.761330 155.279251,116.708107 
	C145.935104,107.885223 136.685471,98.955757 127.601151,89.866035 
	C118.045532,80.304726 108.823471,70.410324 99.279457,60.837120 
	C89.511635,51.039410 79.530182,41.454662 69.642235,31.776703 
	C75.776093,28.503988 81.909958,25.231270 88.391281,21.916386 
z"/>
<path fill="#1C9DCD" opacity="1.000000" stroke="none" 
	d="
M214.245499,104.341370 
	C213.034576,104.314064 211.810608,104.269089 210.254303,103.765282 
	C205.990631,99.480186 201.955307,95.736862 199.786148,90.511940 
	C199.732071,90.381714 199.507248,90.332481 199.390839,90.216568 
	C194.539734,85.386421 189.619705,80.622604 184.869003,75.695526 
	C181.687820,72.396240 178.926590,68.682617 175.663574,65.473534 
	C168.108963,58.043758 160.310364,50.862606 152.719559,43.468872 
	C149.212799,40.053143 146.054840,36.280518 142.568924,32.841854 
	C138.483475,28.811792 134.038620,25.134560 130.096741,20.975342 
	C128.125977,18.895916 126.927193,16.084824 125.090462,13.141974 
	C120.061836,12.593301 119.078522,11.381804 119.825409,5.761250 
	C119.825409,5.761250 119.927345,5.805711 120.272285,5.872998 
	C121.694893,5.218207 122.772568,4.496129 123.850243,3.774051 
	C123.850243,3.774053 123.845016,3.762892 123.829468,3.753590 
	C125.911484,3.830321 128.009048,3.916354 130.613739,4.350829 
	C133.273376,10.397037 138.672272,11.908946 143.429855,14.539551 
	C142.078232,14.539551 140.726624,14.539551 138.003998,14.539551 
	C139.675140,16.318794 140.467041,17.376007 141.462097,18.182585 
	C144.920868,20.986151 148.734650,23.411484 151.901367,26.504848 
	C163.285034,37.624817 174.459244,48.959225 185.712616,60.212570 
	C196.023239,70.523193 206.320404,80.847305 216.655945,91.132874 
	C218.695587,93.162659 220.882935,95.044022 222.614792,97.007027 
	C221.603058,98.132233 220.978699,99.244247 220.354355,100.356270 
	C220.354355,100.356270 220.246353,100.332016 219.987396,100.309753 
	C219.502655,100.567696 219.276886,100.847908 219.051117,101.128120 
	C219.051117,101.128120 219.043839,101.047470 218.846924,101.127144 
	C218.346542,101.371544 218.130722,101.614197 218.002533,101.934776 
	C218.002533,101.934776 217.810913,102.170334 217.247726,102.123497 
	C215.867615,102.811356 215.050705,103.546051 214.233795,104.280746 
	C214.233795,104.280746 214.232468,104.323692 214.245499,104.341370 
z"/>
<path fill="#1D8FB9" opacity="1.000000" stroke="none" 
	d="
M198.055817,206.100433 
	C190.612701,209.031387 183.169586,211.962326 175.053192,214.619446 
	C169.526260,214.249435 166.118210,212.204865 162.636276,208.476761 
	C153.269302,198.447556 143.191391,189.072998 133.219818,179.624207 
	C130.664261,177.202606 130.364334,175.528076 134.209747,173.682541 
	C131.459793,172.741409 129.464905,172.058685 127.243118,171.298309 
	C127.601707,170.256653 127.915924,169.343872 128.230148,168.431076 
	C128.926361,168.467194 129.622589,168.503296 130.740677,168.882080 
	C131.462601,169.079605 131.762634,168.934448 132.062668,168.789291 
	C132.422638,168.634491 132.782593,168.479691 133.583801,168.660828 
	C134.683731,168.662323 135.342377,168.327911 136.001038,167.993469 
	C138.704529,167.284760 141.408005,166.576050 144.791931,166.111023 
	C148.690979,167.185699 151.909561,168.016693 155.128159,168.847687 
	C156.475876,171.139694 158.523102,172.691345 160.444382,174.385757 
	C161.397186,175.226044 162.124008,176.324234 162.943192,177.313934 
	C164.393234,179.065765 165.699158,180.962250 167.309158,182.551178 
	C170.915710,186.110535 174.666061,189.524506 178.368652,192.986145 
	C183.975662,198.228287 187.228699,207.066116 197.358551,205.445786 
	C197.551132,205.414978 197.821655,205.871353 198.055817,206.100433 
z"/>
<path fill="#147FA4" opacity="1.000000" stroke="none" 
	d="
M15.987365,59.043812 
	C16.243126,58.829391 16.537056,58.705540 17.433243,58.722992 
	C18.326511,58.502098 18.655693,58.230473 18.984875,57.958847 
	C18.984875,57.958847 18.989613,58.006023 19.278967,57.982391 
	C20.039690,57.622673 20.511059,57.286587 20.982430,56.950500 
	C23.389858,55.628544 25.797287,54.306587 28.538939,53.270733 
	C26.552984,56.554577 27.313007,58.349045 30.994671,59.365349 
	C30.088627,61.601604 29.187529,63.472767 28.049911,65.835068 
	C40.400368,77.941383 51.056236,92.003746 65.087090,100.938950 
	C66.780853,103.744926 67.886139,105.739677 69.156860,107.622810 
	C69.984467,108.849266 71.462555,109.766136 71.933990,111.078613 
	C73.199783,114.602623 75.694710,115.410446 79.000000,115.418076 
	C78.659607,118.701607 79.179123,120.711510 82.436218,121.931816 
	C84.536652,122.718773 86.461151,124.787003 87.760765,126.747505 
	C91.658157,132.626846 96.275085,133.488663 102.324844,129.051392 
	C102.262367,131.097610 101.735138,133.078857 101.548538,135.091705 
	C101.459602,136.051086 101.757904,137.329865 102.386108,137.961014 
	C102.736977,138.313538 104.145996,137.704086 105.036812,137.404922 
	C106.157829,137.028427 107.236534,136.525986 109.043564,135.787842 
	C108.616150,138.332611 108.378288,139.748810 108.192505,140.854904 
	C112.333206,144.018188 116.199883,146.972122 120.005402,149.995697 
	C119.944244,150.065323 119.822487,150.205078 119.822487,150.205078 
	C112.335045,146.055252 104.679726,142.178589 97.393616,137.701141 
	C79.928581,126.968567 62.637074,115.953613 45.120071,104.399323 
	C48.222710,99.131241 43.359497,96.870804 41.650337,94.128105 
	C40.012188,91.499367 36.580025,90.004181 33.986336,87.947716 
	C32.938885,87.117210 31.620199,86.299278 31.115746,85.167679 
	C28.143776,78.500923 24.240479,73.090279 16.311924,71.891945 
	C14.889860,71.677017 13.523709,70.437332 12.345956,69.422241 
	C10.781606,68.073952 9.427558,66.481659 7.966154,64.590958 
	C7.829038,63.663387 7.708922,63.139069 7.588806,62.614750 
	C7.588806,62.614750 7.653849,62.618561 7.946473,62.656143 
	C8.475706,62.418739 8.712316,62.143753 8.948925,61.868763 
	C8.948924,61.868763 8.960006,61.955593 9.237679,61.945137 
	C10.001580,61.594677 10.487810,61.254677 10.974039,60.914673 
	C10.974039,60.914673 10.978407,60.989780 11.322083,60.991127 
	C13.106295,60.342918 14.546830,59.693367 15.987365,59.043812 
z"/>
<path fill="#2295C0" opacity="1.000000" stroke="none" 
	d="
M198.433441,206.096619 
	C197.821655,205.871353 197.551132,205.414978 197.358551,205.445786 
	C187.228699,207.066116 183.975662,198.228287 178.368652,192.986145 
	C174.666061,189.524506 170.915710,186.110535 167.309158,182.551178 
	C165.699158,180.962250 164.393234,179.065765 162.943192,177.313934 
	C162.124008,176.324234 161.397186,175.226044 160.444382,174.385757 
	C158.523102,172.691345 156.475876,171.139694 155.128159,168.847687 
	C151.909561,168.016693 148.690979,167.185699 145.143036,166.127472 
	C150.035812,159.779938 157.092133,156.391312 164.517838,153.312256 
	C164.798325,156.840088 165.361237,159.152420 169.439957,159.173492 
	C170.636917,159.179672 171.935379,161.044617 172.982178,162.237686 
	C173.929626,163.317490 174.404312,164.841278 175.419205,165.828094 
	C182.964386,173.164551 190.660355,180.347137 198.141785,187.747070 
	C199.811096,189.398193 200.635483,191.878342 202.199783,193.670532 
	C203.105042,194.707642 205.077225,196.029114 205.937424,195.677414 
	C209.475204,194.230850 210.795303,196.163574 211.963074,198.799423 
	C207.579071,201.230560 203.195068,203.661682 198.433441,206.096619 
z"/>
<path fill="#1A89B1" opacity="1.000000" stroke="none" 
	d="
M127.906784,168.272491 
	C127.915924,169.343872 127.601707,170.256653 127.243118,171.298309 
	C129.464905,172.058685 131.459793,172.741409 134.209747,173.682541 
	C130.364334,175.528076 130.664261,177.202606 133.219818,179.624207 
	C143.191391,189.072998 153.269302,198.447556 162.636276,208.476761 
	C166.118210,212.204865 169.526260,214.249435 174.667160,214.592545 
	C166.428986,216.135101 157.903580,217.430771 149.133118,218.385773 
	C149.848114,216.984192 150.808182,215.923248 151.768250,214.862320 
	C150.546692,214.388672 149.299789,213.970200 148.111252,213.424591 
	C147.082581,212.952377 145.830688,212.566238 145.176727,211.744659 
	C141.660767,207.327438 138.498199,202.617096 134.832077,198.334564 
	C131.073669,193.944183 126.902527,189.903717 122.853226,185.767670 
	C121.595406,184.482895 119.936852,183.552582 118.830307,182.165909 
	C116.900208,179.747238 115.255997,177.100433 113.807579,175.005676 
	C111.335724,173.150986 108.921349,171.700180 106.953186,169.789673 
	C102.463440,165.431488 98.397537,160.615204 93.715393,156.488907 
	C92.182518,155.138016 89.278984,155.342422 86.607895,154.747742 
	C86.690468,153.907730 86.844749,152.338242 87.337921,150.351562 
	C88.512650,149.593521 89.348488,149.252655 90.184326,148.911789 
	C101.156731,154.806473 112.116302,160.725357 123.117775,166.565292 
	C124.492859,167.295227 126.089462,167.607880 127.906784,168.272491 
z"/>
<path fill="#198BB3" opacity="1.000000" stroke="none" 
	d="
M155.339478,142.002899 
	C153.083252,140.313065 151.063828,138.590500 148.546371,136.443085 
	C148.763550,135.753616 149.237885,134.247787 149.912125,132.107346 
	C145.061340,133.481400 142.824280,131.877411 142.403793,127.198853 
	C142.265335,125.658325 140.611450,124.027481 139.281158,122.858147 
	C131.888474,116.359955 124.986664,109.393677 118.437798,102.048508 
	C117.205849,100.666756 115.203918,99.979546 113.581146,98.934784 
	C112.782501,98.420609 111.653954,97.987534 111.329597,97.235352 
	C108.399025,90.439240 103.537285,85.723625 96.829330,82.623001 
	C95.708626,82.104973 95.668442,79.595612 94.588867,78.581253 
	C90.315872,74.566422 85.835426,70.771759 81.411453,66.918930 
	C80.812042,66.396904 79.938614,66.134537 79.460503,65.537109 
	C76.315979,61.607841 73.675125,57.155666 70.031540,53.778687 
	C66.245117,50.269321 61.407295,47.919003 57.258747,44.760414 
	C56.042221,43.834187 55.607933,41.880554 54.707664,39.975235 
	C54.600204,39.552662 54.656540,39.578613 55.081619,39.723160 
	C57.412746,39.467781 60.803745,43.437382 61.388802,38.008926 
	C64.326080,39.029411 68.332092,39.369148 69.164398,41.173138 
	C72.575531,48.566647 80.140373,51.724842 84.806839,57.891525 
	C90.312187,65.166786 97.596199,71.096100 104.109077,77.608948 
	C108.030365,81.530228 111.951653,85.451500 115.872948,89.372772 
	C122.857025,96.356819 129.841476,103.340485 136.825058,110.325043 
	C142.630707,116.131516 148.718079,121.690788 154.124039,127.848259 
	C156.929825,131.044083 159.070663,133.481445 163.191071,129.943497 
	C163.904816,131.926636 164.458130,133.464020 165.011017,135.267944 
	C165.015442,135.712112 165.020294,135.889755 165.025131,136.067383 
	C164.662033,136.396042 164.298950,136.724701 163.390472,137.134369 
	C162.566193,137.477936 162.287292,137.740524 162.008392,138.003113 
	C162.008392,138.003113 162.000610,138.000610 161.662720,138.005981 
	C159.621429,138.649017 156.498810,137.377243 157.117188,141.138687 
	C157.117188,141.138687 157.043320,141.050629 156.870193,141.119446 
	C156.398849,141.314941 156.175446,141.522247 156.026840,141.810181 
	C156.026840,141.810181 155.576294,141.970169 155.339478,142.002899 
z"/>
<path fill="#1B8DB5" opacity="1.000000" stroke="none" 
	d="
M165.011444,135.001404 
	C164.458130,133.464020 163.904816,131.926636 163.191071,129.943497 
	C159.070663,133.481445 156.929825,131.044083 154.124039,127.848259 
	C148.718079,121.690788 142.630707,116.131516 136.825058,110.325043 
	C129.841476,103.340485 122.857025,96.356819 115.872948,89.372772 
	C111.951653,85.451500 108.030365,81.530228 104.109077,77.608948 
	C97.596199,71.096100 90.312187,65.166786 84.806839,57.891525 
	C80.140373,51.724842 72.575531,48.566647 69.164398,41.173138 
	C68.332092,39.369148 64.326080,39.029411 61.143234,37.855370 
	C60.302990,37.370876 60.098797,37.047451 59.894604,36.724026 
	C62.917248,35.105286 65.939896,33.486546 69.302383,31.822254 
	C79.530182,41.454662 89.511635,51.039410 99.279457,60.837120 
	C108.823471,70.410324 118.045532,80.304726 127.601151,89.866035 
	C136.685471,98.955757 145.935104,107.885223 155.279251,116.708107 
	C159.571945,120.761330 164.197525,124.475189 168.820602,128.156525 
	C170.048233,129.134079 171.825089,129.421890 173.732574,130.061203 
	C173.354980,130.719513 172.594559,131.343018 171.287170,132.079651 
	C170.502075,132.424927 170.263962,132.657089 170.025833,132.889252 
	C169.909958,133.014160 169.794098,133.139069 169.277924,133.068115 
	C168.252411,133.540161 167.627228,134.208054 167.002045,134.875946 
	C167.002045,134.875946 166.748581,135.128159 166.224884,135.088348 
	C165.471283,135.032822 165.241364,135.017105 165.011444,135.001404 
z"/>
<path fill="#239AC6" opacity="1.000000" stroke="none" 
	d="
M212.282990,198.716400 
	C210.795303,196.163574 209.475204,194.230850 205.937424,195.677414 
	C205.077225,196.029114 203.105042,194.707642 202.199783,193.670532 
	C200.635483,191.878342 199.811096,189.398193 198.141785,187.747070 
	C190.660355,180.347137 182.964386,173.164551 175.419205,165.828094 
	C174.404312,164.841278 173.929626,163.317490 172.982178,162.237686 
	C171.935379,161.044617 170.636917,159.179672 169.439957,159.173492 
	C165.361237,159.152420 164.798325,156.840088 164.867645,153.251129 
	C164.808746,152.821899 164.844330,152.844147 165.179626,152.875275 
	C166.023529,152.558685 166.532135,152.210983 167.040756,151.863266 
	C172.764511,148.577057 178.488281,145.290863 184.535736,142.311905 
	C181.153076,145.613586 181.269623,149.097061 183.868729,152.610016 
	C186.294327,155.888519 188.802612,159.152176 191.636459,162.070938 
	C195.434280,165.982574 199.595139,169.540359 203.572922,173.279037 
	C207.288223,176.771027 210.803940,180.497864 214.714127,183.753036 
	C217.969116,186.462769 221.825287,187.884277 226.177216,186.201904 
	C221.652451,190.345734 217.127670,194.489563 212.282990,198.716400 
z"/>
<path fill="#1C9ECD" opacity="1.000000" stroke="none" 
	d="
M226.162384,186.173218 
	C221.825287,187.884277 217.969116,186.462769 214.714127,183.753036 
	C210.803940,180.497864 207.288223,176.771027 203.572922,173.279037 
	C199.595139,169.540359 195.434280,165.982574 191.636459,162.070938 
	C188.802612,159.152176 186.294327,155.888519 183.868729,152.610016 
	C181.269623,149.097061 181.153076,145.613586 184.885193,142.255280 
	C184.910965,141.891388 184.944092,141.922485 185.327271,141.950714 
	C187.807190,141.319901 189.903900,140.660873 192.057541,140.342651 
	C200.750732,148.951813 209.289917,157.325073 218.063995,165.444473 
	C222.479767,169.530777 227.322037,173.156189 232.043396,177.177612 
	C232.237167,177.612030 232.415359,177.807449 232.649948,177.951431 
	C232.680634,178.284988 232.564301,178.555267 231.895996,179.005356 
	C231.244568,179.481705 231.096512,179.766205 231.046890,180.101944 
	C231.046890,180.101944 231.026581,180.027725 230.817719,180.149033 
	C230.452988,180.588409 230.297119,180.906494 230.141235,181.224564 
	C230.141235,181.224564 230.185394,181.124619 229.849258,181.144012 
	C229.031815,182.141602 228.550507,183.119781 228.069199,184.097961 
	C228.069199,184.097961 228.022522,184.028824 227.817535,184.140656 
	C227.433701,184.552628 227.254868,184.852783 227.076019,185.152924 
	C227.076019,185.152924 227.064041,185.060059 226.852661,185.160736 
	C226.458160,185.566574 226.275009,185.871750 226.091873,186.176910 
	C226.091873,186.176910 226.147537,186.144501 226.162384,186.173218 
z"/>
<path fill="#187B9D" opacity="1.000000" stroke="none" 
	d="
M36.004372,140.999390 
	C36.003559,148.312698 35.985085,155.626068 36.009869,162.939285 
	C36.021152,166.268768 35.186836,169.635712 40.060841,171.109451 
	C42.152676,171.741943 43.422901,175.100891 45.058128,177.227478 
	C45.439808,177.723862 45.804184,178.700974 46.148766,178.688522 
	C51.603714,178.491425 52.572388,183.888687 55.821060,186.408768 
	C58.317768,188.345551 59.820095,190.843933 56.681072,194.070297 
	C56.946014,194.386658 57.210957,194.703003 57.475895,195.019348 
	C61.388718,194.340805 65.301537,193.662262 69.214355,192.983719 
	C69.211411,193.235764 69.208458,193.487808 69.205513,193.739838 
	C67.062653,195.212585 64.919800,196.685318 62.776939,198.158066 
	C63.009071,198.540726 63.241207,198.923401 63.473339,199.306061 
	C66.354271,199.306061 69.235207,199.306061 72.363777,199.306061 
	C72.270439,201.325134 72.183327,203.209702 72.096207,205.094284 
	C72.387581,204.713272 72.678955,204.332260 72.970322,203.951248 
	C79.276619,207.112015 85.582916,210.272797 91.946198,213.802460 
	C69.424797,209.424149 49.809227,199.760742 36.226578,180.267502 
	C35.060959,178.594635 34.098446,176.356476 34.082096,174.372330 
	C33.923283,155.096191 33.986637,135.818237 33.986637,115.569946 
	C36.027584,116.660156 37.514000,117.454155 38.806000,118.588295 
	C37.742126,120.010536 36.396210,120.982422 36.114479,122.200455 
	C35.688004,124.044289 36.002289,126.059464 36.000763,128.464813 
	C36.001255,132.951675 36.002811,136.975525 36.004372,140.999390 
z"/>
<path fill="#1BA9DC" opacity="1.000000" stroke="none" 
	d="
M233.662933,50.999081 
	C233.599167,52.731686 232.437500,54.925152 233.042816,55.656891 
	C237.291397,60.792755 241.853989,65.675186 246.455933,70.505516 
	C247.137360,71.220757 248.555054,71.234558 249.329575,71.477844 
	C249.789047,74.104851 250.190781,76.401840 250.889511,78.902954 
	C248.876495,80.894577 246.566483,82.682068 243.765961,84.766457 
	C242.852280,85.392395 242.429092,85.721443 242.005920,86.050491 
	C242.005920,86.050491 241.995239,86.000847 241.759613,85.994026 
	C241.351135,85.980621 241.178299,85.974045 241.003876,85.566277 
	C240.395294,83.185150 240.230377,80.886337 239.083237,79.296043 
	C237.099304,76.545746 234.409302,74.317329 232.195480,71.716759 
	C229.962753,69.094002 228.464386,64.797714 225.736984,63.852398 
	C219.095581,61.550495 216.610229,55.398087 211.963669,51.354572 
	C209.415695,49.137260 210.161728,45.313202 213.182724,44.268303 
	C214.682022,43.749729 216.460190,44.037430 218.112198,43.960373 
	C218.112198,43.960369 218.580124,44.008972 218.932739,44.274094 
	C219.508591,44.768311 219.777267,44.913212 220.091354,44.973927 
	C220.091354,44.973927 220.566193,45.010891 220.873566,45.217884 
	C221.180923,45.424877 221.594345,45.552048 221.594345,45.552048 
	C221.594345,45.552048 221.952682,45.268528 221.952682,45.268528 
	C225.762741,47.106823 229.572784,48.945118 233.662933,50.999081 
M233.490692,62.843815 
	C233.786484,62.424622 234.082275,62.005428 234.378067,61.586231 
	C233.940216,61.474308 233.502365,61.362381 233.064514,61.250454 
	C233.012054,61.740555 232.959610,62.230659 233.490692,62.843815 
z"/>
<path fill="#1BA2D2" opacity="1.000000" stroke="none" 
	d="
M231.971436,176.990021 
	C227.322037,173.156189 222.479767,169.530777 218.063995,165.444473 
	C209.289917,157.325073 200.750732,148.951813 192.309113,140.145935 
	C192.613358,138.996567 192.722946,138.384735 192.832535,137.772888 
	C192.832535,137.772888 192.938904,137.832916 193.253113,137.884979 
	C194.355118,137.251328 195.142929,136.565613 195.930740,135.879898 
	C195.930740,135.879898 195.985733,135.956421 196.255005,135.946014 
	C197.010910,135.600662 197.497528,135.265717 197.984161,134.930756 
	C197.984161,134.930771 197.989609,134.996857 198.278076,134.967636 
	C199.030090,134.571136 199.493652,134.203857 199.957214,133.836578 
	C204.692459,131.179749 209.427719,128.522903 214.541046,125.888847 
	C214.919083,125.911621 215.021164,126.142494 214.949234,126.468643 
	C211.751633,129.444016 208.625946,132.093231 205.073837,135.103867 
	C205.144241,135.116409 204.235214,134.954468 202.440186,134.634705 
	C204.787018,137.549377 206.272369,139.994873 208.316391,141.811844 
	C213.061264,146.029633 218.111481,149.901733 222.968216,153.996628 
	C226.039154,156.585846 228.984543,159.323975 231.990234,162.461700 
	C231.986633,167.615402 231.979034,172.302704 231.971436,176.990021 
z"/>
<path fill="#127CA0" opacity="1.000000" stroke="none" 
	d="
M7.983154,64.994202 
	C9.427558,66.481659 10.781606,68.073952 12.345956,69.422241 
	C13.523709,70.437332 14.889860,71.677017 16.311924,71.891945 
	C24.240479,73.090279 28.143776,78.500923 31.115746,85.167679 
	C31.620199,86.299278 32.938885,87.117210 33.986336,87.947716 
	C36.580025,90.004181 40.012188,91.499367 41.650337,94.128105 
	C43.359497,96.870804 48.222710,99.131241 44.900520,104.162277 
	C43.650806,103.979149 42.465183,103.379753 40.973663,102.211075 
	C40.087322,101.444603 39.506874,101.247421 38.926426,101.050232 
	C38.926426,101.050232 38.996849,101.016304 38.873711,100.806213 
	C38.446800,100.429108 38.143028,100.262093 37.839256,100.095078 
	C37.839256,100.095078 37.939415,100.069008 37.907715,99.731857 
	C36.218884,98.618950 34.561756,97.843208 32.904625,97.067459 
	C32.904629,97.067459 32.974545,97.026466 32.829597,96.802368 
	C32.141037,96.375641 31.597431,96.172997 31.053825,95.970352 
	C31.053825,95.970352 31.014704,96.006889 30.862553,95.755356 
	C30.380913,95.371429 30.051426,95.239037 29.721935,95.106644 
	C29.234781,94.905807 28.747627,94.704964 28.071785,93.919296 
	C26.883928,92.918907 25.884764,92.503342 24.885599,92.087776 
	C24.885599,92.087776 24.960466,92.045975 24.820370,91.816391 
	C24.125731,91.386589 23.571186,91.186363 23.016640,90.986137 
	C23.016642,90.986137 23.001053,91.000694 22.872150,90.767654 
	C22.433075,90.394264 22.122904,90.253906 21.812735,90.113548 
	C21.812735,90.113548 21.927040,90.092506 21.796385,89.859985 
	C21.092869,89.429184 20.520010,89.230896 19.947149,89.032608 
	C19.947149,89.032608 19.994488,88.997429 19.949245,88.652336 
	C18.244703,87.555168 16.585403,86.803085 14.926104,86.051003 
	C14.926104,86.051003 14.987728,86.000824 14.949108,85.677330 
	C12.941685,84.233826 10.972882,83.113823 9.004079,81.993813 
	C9.004079,81.993813 9.000038,82.000000 8.884917,81.769485 
	C8.475907,81.377014 8.182019,81.215057 7.888131,81.053101 
	C7.888132,81.053101 7.944485,81.049217 7.928064,81.072784 
	C7.567432,79.874352 7.619559,78.146614 6.813024,77.514549 
	C2.426311,74.076752 3.009186,69.934769 4.694416,65.138130 
	C4.750200,64.759567 4.757321,64.804520 5.160461,64.857384 
	C6.370119,64.938232 7.176636,64.966217 7.983154,64.994202 
z"/>
<path fill="#1684A9" opacity="1.000000" stroke="none" 
	d="
M36.001831,128.001831 
	C36.002289,126.059464 35.688004,124.044289 36.114479,122.200455 
	C36.396210,120.982422 37.742126,120.010536 39.053474,118.867493 
	C43.296967,120.913147 47.098564,123.019745 51.079052,125.411392 
	C50.277168,125.706589 49.217529,125.489807 48.339283,125.794998 
	C47.564312,126.064301 46.737404,126.805138 46.413692,127.547264 
	C46.172966,128.099152 46.452240,129.298111 46.925030,129.673630 
	C50.329269,132.377487 53.842083,134.944656 57.520622,137.705383 
	C55.629398,144.257187 60.485439,142.886642 64.523895,143.358795 
	C63.606865,145.477875 62.303291,147.238632 60.652771,148.961823 
	C57.507473,146.729263 54.709122,144.534271 51.910774,142.339264 
	C50.805950,141.362320 47.462921,140.729340 47.396255,139.848419 
	C46.844025,132.551361 40.123215,131.577820 36.001831,128.001831 
z"/>
<path fill="#2F95BC" opacity="1.000000" stroke="none" 
	d="
M244.829590,162.033707 
	C244.721481,149.586365 244.613373,137.139038 244.961395,124.337341 
	C245.606461,123.991150 245.795395,123.999313 245.988068,124.471252 
	C245.997971,129.285873 246.004105,133.636703 246.006195,138.448212 
	C246.001724,141.051651 245.986404,143.194565 246.003906,145.337189 
	C246.042679,150.082962 251.965637,156.916336 256.965088,158.454285 
	C256.968231,163.938675 256.958862,168.955551 256.583740,173.970779 
	C252.421829,169.990646 248.625717,166.012177 244.829590,162.033707 
z"/>
<path fill="#1EA5D6" opacity="1.000000" stroke="none" 
	d="
M246.897491,105.756691 
	C248.539764,104.799400 250.182022,103.842110 252.489410,102.905312 
	C253.759537,102.687675 254.364563,102.449547 254.969589,102.211411 
	C255.405594,102.169228 255.841614,102.127045 256.615723,102.618851 
	C256.982635,106.442360 257.011505,109.731888 257.034302,113.486130 
	C256.995178,118.631882 256.962128,123.312912 256.567596,127.988907 
	C254.800720,126.981728 253.411545,125.955864 251.986069,124.983200 
	C250.008072,123.633507 248.002808,122.323761 246.007080,120.536240 
	C245.984528,116.379456 245.964111,112.683342 245.992157,108.651718 
	C246.326233,107.463043 246.611862,106.609871 246.897491,105.756691 
z"/>
<path fill="#1A89B1" opacity="1.000000" stroke="none" 
	d="
M244.749771,162.443573 
	C248.625717,166.012177 252.421829,169.990646 256.598114,174.431717 
	C256.986237,178.257706 256.994202,181.621078 257.002167,184.984467 
	C254.007812,186.341949 252.172470,185.298203 250.625702,182.477921 
	C249.846024,181.056305 248.048813,180.192764 246.357056,179.038025 
	C245.785065,178.729385 245.567688,178.459625 245.112274,178.076263 
	C244.874237,177.962662 244.704727,177.671539 244.841751,177.094666 
	C244.906219,174.431931 244.833664,172.346100 244.761108,170.260254 
	C244.730713,167.791306 244.700333,165.322372 244.749771,162.443573 
z"/>
<path fill="#3E8BA5" opacity="1.000000" stroke="none" 
	d="
M257.223083,184.991425 
	C256.994202,181.621078 256.986237,178.257706 256.963867,174.433380 
	C256.958862,168.955551 256.968231,163.938675 256.977478,157.992584 
	C256.959167,153.031036 256.940948,148.998703 256.937561,144.501129 
	C256.944611,138.688583 256.936859,133.341263 256.929108,127.993950 
	C256.962128,123.312912 256.995178,118.631882 257.226807,113.487671 
	C257.425415,113.024490 257.810089,113.056358 257.810089,113.056358 
	C257.885406,136.729782 257.960724,160.403198 257.961029,184.539703 
	C257.886017,185.002792 257.444000,184.998398 257.223083,184.991425 
z"/>
<path fill="#33A7CD" opacity="1.000000" stroke="none" 
	d="
M228.886169,117.880417 
	C230.136475,117.214386 231.386780,116.548355 233.530594,115.406357 
	C233.530594,125.921806 233.530594,135.618927 233.059143,145.668701 
	C232.396194,146.013016 232.204697,146.004684 232.010620,145.596313 
	C232.003281,144.129196 231.998550,143.062088 231.997574,141.526886 
	C232.004028,134.675690 232.002762,128.292603 232.011765,121.909500 
	C232.014618,119.889877 232.225067,117.731270 229.046997,118.072311 
	C228.995117,118.006912 228.886169,117.880417 228.886169,117.880417 
z"/>
<path fill="#147FA4" opacity="1.000000" stroke="none" 
	d="
M139.000610,148.999390 
	C141.175430,148.683823 143.350250,148.368256 145.957214,148.081177 
	C138.182404,153.481613 129.369186,152.863464 120.113029,150.472412 
	C119.822487,150.205078 119.944244,150.065323 120.467850,150.020172 
	C126.994499,149.649796 132.997559,149.324585 139.000610,148.999390 
z"/>
<path fill="#239AC6" opacity="1.000000" stroke="none" 
	d="
M232.013214,145.996338 
	C232.204697,146.004684 232.396194,146.013016 232.875000,146.034317 
	C233.231491,155.589081 233.300674,165.130875 233.222992,175.477722 
	C233.061768,176.532227 233.047363,176.781677 233.032974,177.031143 
	C233.004044,177.199020 232.975113,177.366898 232.798065,177.743103 
	C232.415359,177.807449 232.237167,177.612030 232.043396,177.177612 
	C231.979034,172.302704 231.986633,167.615402 231.994354,161.995407 
	C232.000702,156.040604 232.006958,151.018463 232.013214,145.996338 
z"/>
<path fill="#187B9D" opacity="1.000000" stroke="none" 
	d="
M92.684799,214.416290 
	C95.172592,214.092377 97.970329,213.904221 100.737305,214.116699 
	C101.527069,214.177353 102.227570,215.400421 102.982666,216.464844 
	C99.658585,216.127548 96.320824,215.415878 92.684799,214.416290 
z"/>
<path fill="#2797C1" opacity="1.000000" stroke="none" 
	d="
M245.943695,108.987221 
	C245.964111,112.683342 245.984528,116.379456 246.003311,120.912529 
	C245.995895,122.502144 245.990097,123.254814 245.984314,124.007477 
	C245.795395,123.999313 245.606461,123.991150 245.134247,123.966995 
	C244.803513,119.269127 244.756058,114.587265 245.063583,109.448692 
	C245.593597,108.990395 245.768646,108.988808 245.943695,108.987221 
z"/>
<path fill="#239AC6" opacity="1.000000" stroke="none" 
	d="
M192.483078,137.813934 
	C192.722946,138.384735 192.613358,138.996567 192.252182,139.805130 
	C189.903900,140.660873 187.807190,141.319901 185.307892,141.954727 
	C187.314743,140.572006 189.724182,139.213501 192.483078,137.813934 
z"/>
<path fill="#2F8AA9" opacity="1.000000" stroke="none" 
	d="
M85.031082,147.986649 
	C84.381943,146.835175 83.732811,145.683685 83.049072,144.190781 
	C85.213829,145.021774 87.413193,146.194199 89.324051,147.688263 
	C88.020805,148.002319 87.006073,147.994736 85.751282,147.986740 
	C85.511215,147.986328 85.031082,147.986649 85.031082,147.986649 
z"/>
<path fill="#287B99" opacity="1.000000" stroke="none" 
	d="
M9.160702,82.285332 
	C10.972882,83.113823 12.941685,84.233826 14.933501,85.713867 
	C13.076784,84.908211 11.197054,83.742531 9.160702,82.285332 
z"/>
<path fill="#2797C1" opacity="1.000000" stroke="none" 
	d="
M257.887634,112.604294 
	C257.810089,113.056358 257.425415,113.024490 257.232910,113.022957 
	C257.011505,109.731888 256.982635,106.442360 256.932556,102.714211 
	C257.262634,105.567810 257.613922,108.860016 257.887634,112.604294 
z"/>
<path fill="#209AC8" opacity="1.000000" stroke="none" 
	d="
M220.666046,100.282990 
	C220.978699,99.244247 221.603058,98.132233 222.935089,97.004135 
	C224.068604,96.963745 224.494446,96.939445 224.988861,96.989357 
	C225.057404,97.063576 225.193161,97.213242 225.193161,97.213242 
	C223.788025,98.212067 222.382889,99.210892 220.666046,100.282990 
z"/>
<path fill="#287B99" opacity="1.000000" stroke="none" 
	d="
M33.067654,97.357025 
	C34.561756,97.843208 36.218884,98.618950 37.880638,99.775955 
	C36.333736,99.320335 34.782211,98.483459 33.067654,97.357025 
z"/>
<path fill="#2F8AA9" opacity="1.000000" stroke="none" 
	d="
M74.148239,138.568604 
	C72.616600,138.088440 70.885605,137.328278 69.142914,136.192474 
	C70.737106,136.640778 72.342987,137.464691 74.148239,138.568604 
z"/>
<path fill="#209AC8" opacity="1.000000" stroke="none" 
	d="
M230.119034,94.125000 
	C228.691818,95.108612 227.264603,96.092216 225.515274,97.144531 
	C225.193161,97.213242 225.057404,97.063576 225.064178,96.636612 
	C226.696075,95.447052 228.321213,94.684456 229.988663,93.973358 
	C230.030991,94.024864 230.119034,94.125000 230.119034,94.125000 
z"/>
<path fill="#287B99" opacity="1.000000" stroke="none" 
	d="
M15.102022,86.332367 
	C16.585403,86.803085 18.244703,87.555168 19.938097,88.679611 
	C18.407440,88.239235 16.842691,87.426483 15.102022,86.332367 
z"/>
<path fill="#1787AE" opacity="1.000000" stroke="none" 
	d="
M157.413361,140.987473 
	C156.498810,137.377243 159.621429,138.649017 161.662811,138.009750 
	C160.570374,138.950867 159.139938,139.893555 157.413361,140.987473 
z"/>
<path fill="#2F8AA9" opacity="1.000000" stroke="none" 
	d="
M61.984894,131.558548 
	C60.832073,131.514023 59.498486,131.177429 58.079292,130.489166 
	C59.263832,130.513824 60.533981,130.890152 61.984894,131.558548 
z"/>
<path fill="#2F95BC" opacity="1.000000" stroke="none" 
	d="
M244.601349,170.627319 
	C244.833664,172.346100 244.906219,174.431931 244.913055,176.942047 
	C244.712067,175.242325 244.576828,173.118347 244.601349,170.627319 
z"/>
<path fill="#1686AE" opacity="1.000000" stroke="none" 
	d="
M85.991341,147.987152 
	C87.006073,147.994736 88.020805,148.002319 89.415665,148.005264 
	C89.795784,148.000626 90.045395,148.432693 90.114861,148.672241 
	C89.348488,149.252655 88.512650,149.593521 87.338554,149.967194 
	C87.000305,150.000000 87.000000,150.000000 86.890213,149.740417 
	C86.517403,148.982941 86.254372,148.485046 85.991341,147.987152 
z"/>
<path fill="#209AC8" opacity="1.000000" stroke="none" 
	d="
M239.210800,88.234848 
	C238.395660,88.839272 237.580521,89.443695 236.403198,90.046127 
	C236.041000,90.044128 235.923492,89.916794 236.002747,89.587311 
	C237.031601,88.813629 237.981216,88.369431 239.001328,88.002174 
	C239.071823,88.079124 239.210800,88.234848 239.210800,88.234848 
z"/>
<path fill="#209AC8" opacity="1.000000" stroke="none" 
	d="
M214.558472,104.222366 
	C215.050705,103.546051 215.867615,102.811356 217.096603,102.108841 
	C216.633499,102.815338 215.758331,103.489662 214.558472,104.222366 
z"/>
<path fill="#2F8AA9" opacity="1.000000" stroke="none" 
	d="
M81.004913,142.570267 
	C80.153038,142.451904 79.139511,142.059753 78.075287,141.310257 
	C78.964149,141.400757 79.903709,141.848618 81.004913,142.570267 
z"/>
<path fill="#239AC6" opacity="1.000000" stroke="none" 
	d="
M228.359161,183.971878 
	C228.550507,183.119781 229.031815,182.141602 229.887177,181.183350 
	C229.723877,182.084106 229.186493,182.964951 228.359161,183.971878 
z"/>
<path fill="#209AC8" opacity="1.000000" stroke="none" 
	d="
M241.005478,85.967468 
	C241.178299,85.974045 241.351135,85.980621 241.783051,86.003754 
	C241.300903,86.710106 240.559677,87.399918 239.514618,88.162292 
	C239.210800,88.234848 239.071823,88.079124 239.070206,87.692474 
	C239.714218,86.859711 240.359848,86.413589 241.005478,85.967468 
z"/>
<path fill="#239AC6" opacity="1.000000" stroke="none" 
	d="
M195.619690,135.947357 
	C195.142929,136.565613 194.355118,137.251328 193.192200,137.889252 
	C193.647583,137.232559 194.478104,136.623688 195.619690,135.947357 
z"/>
<path fill="#2F8AA9" opacity="1.000000" stroke="none" 
	d="
M68.999878,135.581696 
	C68.145096,135.476288 67.129906,135.096527 66.053055,134.365067 
	C66.940758,134.444687 67.890114,134.876022 68.999878,135.581696 
z"/>
<path fill="#1D90B9" opacity="1.000000" stroke="none" 
	d="
M167.273636,134.849258 
	C167.627228,134.208054 168.252411,133.540161 169.039597,133.160309 
	C168.649475,133.906433 168.097351,134.364502 167.273636,134.849258 
z"/>
<path fill="#287B99" opacity="1.000000" stroke="none" 
	d="
M25.043484,92.361694 
	C25.884764,92.503342 26.883928,92.918907 27.933884,93.688400 
	C27.056904,93.573425 26.129137,93.104515 25.043484,92.361694 
z"/>
<path fill="#209AC8" opacity="1.000000" stroke="none" 
	d="
M236.099762,90.107788 
	C235.346756,90.788292 234.534973,91.405144 233.366852,92.017014 
	C233.010498,92.012039 232.917908,91.909782 232.999878,91.582237 
	C234.029053,90.808723 234.976273,90.362762 235.923492,89.916794 
	C235.923492,89.916794 236.041000,90.044128 236.099762,90.107788 
z"/>
<path fill="#1A89B1" opacity="1.000000" stroke="none" 
	d="
M135.708282,167.965866 
	C135.342377,168.327911 134.683731,168.662323 133.881042,168.695145 
	C134.296524,168.241776 134.856018,168.090012 135.708282,167.965866 
z"/>
<path fill="#2F95BC" opacity="1.000000" stroke="none" 
	d="
M245.992157,108.651718 
	C245.768646,108.988808 245.593597,108.990395 245.155670,108.988991 
	C245.324417,107.970474 245.756042,106.954956 246.542572,105.848068 
	C246.611862,106.609871 246.326233,107.463043 245.992157,108.651718 
z"/>
<path fill="#33A7CD" opacity="1.000000" stroke="none" 
	d="
M217.983231,123.981583 
	C218.650085,123.552589 219.316956,123.123604 220.392395,122.746689 
	C220.800980,122.798759 221.025330,123.026367 220.902130,123.233971 
	C220.572922,123.700768 220.314499,123.887398 219.689316,124.013901 
	C218.959412,124.077957 218.543839,124.129585 218.092255,124.131119 
	C218.056244,124.081032 217.983231,123.981583 217.983231,123.981583 
z"/>
<path fill="#2F8AA9" opacity="1.000000" stroke="none" 
	d="
M77.877914,140.720764 
	C77.477257,140.772202 76.904610,140.576721 76.197212,140.097534 
	C76.610283,140.033829 77.158096,140.253845 77.877914,140.720764 
z"/>
<path fill="#209AC8" opacity="1.000000" stroke="none" 
	d="
M242.294037,86.002365 
	C242.429092,85.721443 242.852280,85.392395 243.556610,85.041168 
	C243.419250,85.330734 243.000702,85.642479 242.294037,86.002365 
z"/>
<path fill="#287B99" opacity="1.000000" stroke="none" 
	d="
M31.219553,96.209808 
	C31.597431,96.172997 32.141037,96.375641 32.825211,96.842651 
	C32.438946,96.887772 31.912113,96.668518 31.219553,96.209808 
z"/>
<path fill="#209AC8" opacity="1.000000" stroke="none" 
	d="
M233.056625,92.063324 
	C232.691681,92.468262 232.280609,92.821907 231.499847,93.153336 
	C231.130157,93.131119 230.936844,92.952522 230.957245,92.708488 
	C230.977661,92.464455 231.003723,91.975380 231.323242,91.975800 
	C232.067810,91.954071 232.492859,91.931931 232.917908,91.909790 
	C232.917908,91.909782 233.010498,92.012039 233.056625,92.063324 
z"/>
<path fill="#33A7CD" opacity="1.000000" stroke="none" 
	d="
M221.857040,121.846130 
	C222.337173,121.535606 222.817307,121.225082 223.643524,120.954330 
	C223.989609,120.994087 224.088364,121.129791 223.892212,121.338959 
	C223.162140,121.740875 222.628204,121.933624 222.035538,122.055801 
	C221.976822,121.985245 221.857040,121.846130 221.857040,121.846130 
z"/>
<path fill="#2797C1" opacity="1.000000" stroke="none" 
	d="
M254.630066,102.136490 
	C254.364563,102.449547 253.759537,102.687675 252.810425,102.904541 
	C253.074387,102.609367 253.682465,102.335472 254.630066,102.136490 
z"/>
<path fill="#2295C0" opacity="1.000000" stroke="none" 
	d="
M166.713623,151.827332 
	C166.532135,152.210983 166.023529,152.558685 165.187561,152.894318 
	C165.368973,152.518631 165.877731,152.155014 166.713623,151.827332 
z"/>
<path fill="#33A7CD" opacity="1.000000" stroke="none" 
	d="
M214.890259,125.788742 
	C215.293198,125.366982 215.724945,125.068100 216.515564,124.820900 
	C216.874420,124.872581 217.050583,125.056702 216.859436,125.283279 
	C216.119247,125.720734 215.570206,125.931618 215.021164,126.142502 
	C215.021164,126.142494 214.919083,125.911621 214.890259,125.788742 
z"/>
<path fill="#33A7CD" opacity="1.000000" stroke="none" 
	d="
M223.938766,120.927322 
	C224.328140,120.525131 224.768372,120.189697 225.564209,119.884583 
	C225.919846,119.914894 226.064514,120.093140 225.876587,120.311569 
	C225.155228,120.729935 224.621796,120.929863 224.088364,121.129791 
	C224.088364,121.129791 223.989609,120.994087 223.938766,120.927322 
z"/>
<path fill="#2F8AA9" opacity="1.000000" stroke="none" 
	d="
M63.916702,132.687225 
	C63.497166,132.755707 62.918682,132.566956 62.214226,132.086090 
	C62.644756,132.005951 63.201252,132.217972 63.916702,132.687225 
z"/>
<path fill="#287B99" opacity="1.000000" stroke="none" 
	d="
M20.091558,89.299866 
	C20.520010,89.230896 21.092869,89.429184 21.790993,89.917847 
	C21.356159,89.994522 20.796062,89.780823 20.091558,89.299866 
z"/>
<path fill="#2F8AA9" opacity="1.000000" stroke="none" 
	d="
M65.821304,133.764618 
	C65.433609,133.820236 64.881561,133.629974 64.179276,133.178528 
	C64.571678,133.117798 65.114319,133.318268 65.821304,133.764618 
z"/>
<path fill="#1684A9" opacity="1.000000" stroke="none" 
	d="
M53.018749,126.694778 
	C52.509491,126.768440 51.932457,126.524330 51.274139,125.960815 
	C51.778900,125.886604 52.364937,126.131798 53.018749,126.694778 
z"/>
<path fill="#239AC6" opacity="1.000000" stroke="none" 
	d="
M199.656281,133.878235 
	C199.493652,134.203857 199.030090,134.571136 198.250214,134.949661 
	C198.407715,134.613892 198.881531,134.266876 199.656281,133.878235 
z"/>
<path fill="#287B99" opacity="1.000000" stroke="none" 
	d="
M39.040627,101.344757 
	C39.506874,101.247421 40.087322,101.444603 40.797405,101.931068 
	C40.336304,102.026649 39.745564,101.832962 39.040627,101.344757 
z"/>
<path fill="#239AC6" opacity="1.000000" stroke="none" 
	d="
M197.666580,134.932861 
	C197.497528,135.265717 197.010910,135.600662 196.209885,135.932465 
	C196.379990,135.597870 196.864502,135.266418 197.666580,134.932861 
z"/>
<path fill="#33A7CD" opacity="1.000000" stroke="none" 
	d="
M225.844513,119.828285 
	C226.241013,119.440186 226.712814,119.138695 227.545303,118.870262 
	C227.905975,118.903328 228.054230,119.061440 227.869507,119.286591 
	C227.144699,119.705536 226.604614,119.899338 226.064514,120.093140 
	C226.064514,120.093140 225.919846,119.914894 225.844513,119.828285 
z"/>
<path fill="#287B99" opacity="1.000000" stroke="none" 
	d="
M23.191656,91.222694 
	C23.571186,91.186363 24.125731,91.386589 24.817497,91.859169 
	C24.425369,91.907433 23.896021,91.683342 23.191656,91.222694 
z"/>
<path fill="#239AC6" opacity="1.000000" stroke="none" 
	d="
M227.337128,185.068649 
	C227.254868,184.852783 227.433701,184.552628 227.858856,184.146271 
	C227.936188,184.354828 227.767197,184.669586 227.337128,185.068649 
z"/>
<path fill="#239AC6" opacity="1.000000" stroke="none" 
	d="
M230.406494,181.134155 
	C230.297119,180.906494 230.452988,180.588409 230.855865,180.154175 
	C230.959152,180.373260 230.815445,180.708511 230.406494,181.134155 
z"/>
<path fill="#209AC8" opacity="1.000000" stroke="none" 
	d="
M219.328842,101.084145 
	C219.276886,100.847908 219.502655,100.567696 220.007507,100.258194 
	C220.059921,100.499329 219.833237,100.769745 219.328842,101.084145 
z"/>
<path fill="#239AC6" opacity="1.000000" stroke="none" 
	d="
M226.360962,186.097443 
	C226.275009,185.871750 226.458160,185.566574 226.899109,185.166626 
	C226.981308,185.387207 226.805695,185.702591 226.360962,186.097443 
z"/>
<path fill="#287B99" opacity="1.000000" stroke="none" 
	d="
M29.859047,95.349670 
	C30.051426,95.239037 30.380913,95.371429 30.863312,95.728607 
	C30.676203,95.833160 30.336180,95.712936 29.859047,95.349670 
z"/>
<path fill="#33A7CD" opacity="1.000000" stroke="none" 
	d="
M220.690765,122.683075 
	C220.840591,122.359741 221.100632,122.152092 221.608856,121.895294 
	C221.857040,121.846130 221.976822,121.985245 221.893143,122.244965 
	C221.591110,122.743217 221.329727,122.917107 221.025330,123.026367 
	C221.025330,123.026367 220.800980,122.798759 220.690765,122.683075 
z"/>
<path fill="#33A7CD" opacity="1.000000" stroke="none" 
	d="
M216.785156,124.781662 
	C216.954178,124.473961 217.212448,124.257195 217.726990,124.011002 
	C217.983231,123.981583 218.056244,124.081032 217.940521,124.308853 
	C217.602829,124.763763 217.344757,124.937111 217.050583,125.056702 
	C217.050583,125.056702 216.874420,124.872581 216.785156,124.781662 
z"/>
<path fill="#1B8DB5" opacity="1.000000" stroke="none" 
	d="
M174.316986,130.095291 
	C174.283066,129.932983 174.489288,129.729950 174.822052,129.645782 
	C174.948563,129.764618 174.557114,130.054565 174.316986,130.095291 
z"/>
<path fill="#287B99" opacity="1.000000" stroke="none" 
	d="
M21.917070,90.366020 
	C22.122904,90.253906 22.433075,90.394264 22.876577,90.759010 
	C22.680407,90.861771 22.350906,90.740135 21.917070,90.366020 
z"/>
<path fill="#1D90B9" opacity="1.000000" stroke="none" 
	d="
M170.287323,132.862854 
	C170.263962,132.657089 170.502075,132.424927 170.988098,132.135254 
	C171.006943,132.330658 170.777893,132.583572 170.287323,132.862854 
z"/>
<path fill="#1787AE" opacity="1.000000" stroke="none" 
	d="
M165.011017,135.267944 
	C165.241364,135.017105 165.471283,135.032822 166.046112,135.086823 
	C166.125122,135.397614 165.859207,135.670120 165.309219,136.005005 
	C165.020294,135.889755 165.015442,135.712112 165.011017,135.267944 
z"/>
<path fill="#1787AE" opacity="1.000000" stroke="none" 
	d="
M162.300232,137.953461 
	C162.287292,137.740524 162.566193,137.477936 163.135071,137.157562 
	C163.147369,137.367783 162.869736,137.635803 162.300232,137.953461 
z"/>
<path fill="#209AC8" opacity="1.000000" stroke="none" 
	d="
M231.225266,93.222076 
	C231.087128,93.550514 230.853882,93.788002 230.369843,94.075241 
	C230.119034,94.125000 230.030991,94.024864 230.112213,93.772812 
	C230.395935,93.272079 230.643738,93.082672 230.936844,92.952522 
	C230.936844,92.952522 231.130157,93.131119 231.225266,93.222076 
z"/>
<path fill="#33A7CD" opacity="1.000000" stroke="none" 
	d="
M227.830551,118.825508 
	C227.888641,118.429085 228.112427,118.197830 228.656326,117.967178 
	C228.886169,117.880417 228.995117,118.006912 228.907608,118.262207 
	C228.606644,118.757698 228.351349,118.939011 228.054230,119.061440 
	C228.054230,119.061440 227.905975,118.903328 227.830551,118.825508 
z"/>
<path fill="#239AC6" opacity="1.000000" stroke="none" 
	d="
M231.283981,180.000687 
	C231.096512,179.766205 231.244568,179.481705 231.694962,179.114807 
	C231.772934,179.287262 231.647003,179.593338 231.283981,180.000687 
z"/>
<path fill="#1787AE" opacity="1.000000" stroke="none" 
	d="
M156.286926,141.842133 
	C156.175446,141.522247 156.398849,141.314941 156.924850,141.137207 
	C156.950760,141.348801 156.748901,141.611435 156.286926,141.842133 
z"/>
<path fill="#2F8AA9" opacity="1.000000" stroke="none" 
	d="
M82.479523,143.472778 
	C82.249229,143.620850 81.830765,143.504410 81.244942,143.097366 
	C81.482162,142.940613 81.886757,143.074448 82.479523,143.472778 
z"/>
<path fill="#287B99" opacity="1.000000" stroke="none" 
	d="
M7.987761,81.296875 
	C8.182019,81.215057 8.475907,81.377014 8.887678,81.766960 
	C8.699504,81.843521 8.393447,81.692085 7.987761,81.296875 
z"/>
<path fill="#287B99" opacity="1.000000" stroke="none" 
	d="
M37.946930,100.335617 
	C38.143028,100.262093 38.446800,100.429108 38.855988,100.841057 
	C38.659134,100.916039 38.356869,100.746094 37.946930,100.335617 
z"/>
<path fill="#1A89B1" opacity="1.000000" stroke="none" 
	d="
M131.782135,168.746613 
	C131.762634,168.934448 131.462601,169.079605 131.058090,169.038101 
	C131.136307,168.802261 131.318970,168.753098 131.782135,168.746613 
z"/>
<path fill="#209AC8" opacity="1.000000" stroke="none" 
	d="
M218.263824,101.906837 
	C218.130722,101.614197 218.346542,101.371544 218.887085,101.132278 
	C218.924484,101.331459 218.724808,101.605179 218.263824,101.906837 
z"/>
<path fill="#33A7CD" opacity="1.000000" stroke="none" 
	d="
M233.233124,176.906128 
	C233.047363,176.781677 233.061768,176.532227 233.149841,175.913025 
	C233.365494,175.814148 233.540985,176.074326 233.632187,176.361298 
	C233.666504,176.469269 233.505325,176.639359 233.233124,176.906128 
z"/>
<path fill="#1BA1D1" opacity="1.000000" stroke="none" 
	d="
M230.957245,92.708488 
	C230.643738,93.082672 230.395935,93.272079 230.069885,93.721306 
	C228.321213,94.684456 226.696075,95.447052 224.995636,96.562393 
	C224.494446,96.939445 224.068604,96.963745 223.322449,96.990944 
	C220.882935,95.044022 218.695587,93.162659 216.655945,91.132874 
	C206.320404,80.847305 196.023239,70.523193 185.712616,60.212570 
	C174.459244,48.959225 163.285034,37.624817 151.901367,26.504848 
	C148.734650,23.411484 144.920868,20.986151 141.462097,18.182585 
	C140.467041,17.376007 139.675140,16.318794 138.003998,14.539551 
	C140.726624,14.539551 142.078232,14.539551 143.429855,14.539551 
	C138.672272,11.908946 133.273376,10.397037 131.061523,4.352039 
	C132.244858,3.771154 133.487534,3.537500 134.954010,2.987703 
	C135.595291,2.706566 136.012772,2.741571 136.771957,3.262691 
	C139.710724,6.944949 142.954987,8.567130 147.150513,7.875806 
	C147.150513,7.875806 147.056717,7.905025 147.202225,8.146302 
	C147.947174,8.552046 148.546616,8.716513 149.146057,8.880980 
	C149.146057,8.880980 149.059006,8.911166 149.192627,9.145164 
	C149.889313,9.582063 150.452347,9.784962 151.015396,9.987860 
	C157.148148,12.890275 163.280914,15.792690 169.416046,19.165028 
	C168.006699,19.490253 166.596375,19.329622 165.182846,19.205568 
	C163.898178,19.092819 162.610016,19.019846 161.323395,18.929338 
	C161.741455,20.366932 161.767914,22.136126 162.651459,23.179527 
	C165.231735,26.226660 168.419678,28.012007 172.823715,26.196732 
	C171.633453,27.601385 170.443207,29.006037 169.029633,30.674238 
	C171.609497,31.704048 174.290604,32.024799 175.821594,33.521790 
	C181.026138,38.610794 185.769882,44.167259 190.797302,49.442562 
	C194.200500,53.013554 197.842133,56.356464 201.272644,59.902473 
	C205.238037,64.001396 209.039032,68.259285 213.002304,72.360329 
	C217.547516,77.063568 222.192459,81.670433 227.128677,86.657188 
	C227.701233,86.419640 228.997116,85.882004 231.003723,85.049484 
	C231.003723,87.752869 231.003723,89.864120 231.003723,91.975380 
	C231.003723,91.975380 230.977661,92.464455 230.957245,92.708488 
z"/>
<path fill="#1BA5D7" opacity="1.000000" stroke="none" 
	d="
M231.323242,91.975800 
	C231.003723,89.864120 231.003723,87.752869 231.003723,85.049484 
	C228.997116,85.882004 227.701233,86.419640 227.128677,86.657188 
	C222.192459,81.670433 217.547516,77.063568 213.002304,72.360329 
	C209.039032,68.259285 205.238037,64.001396 201.272644,59.902473 
	C197.842133,56.356464 194.200500,53.013554 190.797302,49.442562 
	C185.769882,44.167259 181.026138,38.610794 175.821594,33.521790 
	C174.290604,32.024799 171.609497,31.704048 169.029633,30.674238 
	C170.443207,29.006037 171.633453,27.601385 172.823715,26.196732 
	C168.419678,28.012007 165.231735,26.226660 162.651459,23.179527 
	C161.767914,22.136126 161.741455,20.366932 161.323395,18.929338 
	C162.610016,19.019846 163.898178,19.092819 165.182846,19.205568 
	C166.596375,19.329622 168.006699,19.490253 169.686905,19.391792 
	C170.277466,19.056543 170.569458,19.114933 171.079056,19.822796 
	C171.922211,20.519215 172.517670,20.716644 173.113113,20.914074 
	C173.113113,20.914074 173.013046,20.929710 173.059814,21.223419 
	C174.059525,21.729834 175.012451,21.942541 175.965378,22.155251 
	C176.875717,22.515781 177.786072,22.876310 179.006439,23.770573 
	C179.901550,24.520859 180.486603,24.737413 181.071671,24.953968 
	C181.071671,24.953966 181.013611,24.995890 181.128265,25.196266 
	C181.524246,25.586712 181.805557,25.776783 182.086868,25.966856 
	C182.086868,25.966858 182.013565,25.983076 182.066162,26.287231 
	C183.394073,26.801805 184.669418,27.012222 185.944748,27.222639 
	C196.573364,32.587734 207.201965,37.952827 217.971390,43.639145 
	C216.460190,44.037430 214.682022,43.749729 213.182724,44.268303 
	C210.161728,45.313202 209.415695,49.137260 211.963669,51.354572 
	C216.610229,55.398087 219.095581,61.550495 225.736984,63.852398 
	C228.464386,64.797714 229.962753,69.094002 232.195480,71.716759 
	C234.409302,74.317329 237.099304,76.545746 239.083237,79.296043 
	C240.230377,80.886337 240.395294,83.185150 241.003876,85.566277 
	C240.359848,86.413589 239.714218,86.859711 238.999710,87.615524 
	C237.981216,88.369431 237.031601,88.813629 236.002747,89.587311 
	C234.976273,90.362762 234.029053,90.808723 232.999878,91.582245 
	C232.492859,91.931931 232.067810,91.954071 231.323242,91.975800 
z"/>
<path fill="#209AC8" opacity="1.000000" stroke="none" 
	d="
M146.956451,7.585528 
	C142.954987,8.567130 139.710724,6.944949 137.051208,3.408309 
	C140.246643,4.476959 143.504517,5.886105 146.956451,7.585528 
z"/>
<path fill="#1BA1D1" opacity="1.000000" stroke="none" 
	d="
M185.663635,27.005371 
	C184.669418,27.012222 183.394073,26.801805 182.081970,26.253193 
	C183.157654,26.206032 184.270096,26.497066 185.663635,27.005371 
z"/>
<path fill="#1BA1D1" opacity="1.000000" stroke="none" 
	d="
M175.726349,21.934639 
	C175.012451,21.942541 174.059525,21.729834 173.096649,21.188660 
	C173.886917,21.144802 174.687119,21.429417 175.726349,21.934639 
z"/>
<path fill="#209AC8" opacity="1.000000" stroke="none" 
	d="
M148.980240,8.617126 
	C148.546616,8.716513 147.947174,8.552046 147.202362,8.097178 
	C147.642807,7.988941 148.228622,8.171108 148.980240,8.617126 
z"/>
<path fill="#209AC8" opacity="1.000000" stroke="none" 
	d="
M150.923187,9.685533 
	C150.452347,9.784962 149.889313,9.582063 149.191772,9.099106 
	C149.648514,9.007099 150.239746,9.195151 150.923187,9.685533 
z"/>
<path fill="#1BA1D1" opacity="1.000000" stroke="none" 
	d="
M172.954712,20.644707 
	C172.517670,20.716644 171.922211,20.519215 171.192963,20.023392 
	C171.638199,19.941778 172.217239,20.158560 172.954712,20.644707 
z"/>
<path fill="#1BA1D1" opacity="1.000000" stroke="none" 
	d="
M180.904510,24.696388 
	C180.486603,24.737413 179.901550,24.520859 179.191162,24.004349 
	C179.623001,23.949198 180.180176,24.194002 180.904510,24.696388 
z"/>
<path fill="#1BA5D7" opacity="1.000000" stroke="none" 
	d="
M221.731781,45.146172 
	C221.952682,45.268528 221.594345,45.552048 221.594345,45.552048 
	C221.594345,45.552048 221.180923,45.424877 221.101349,45.287331 
	C221.184814,45.107792 221.347839,45.065804 221.731781,45.146172 
z"/>
<path fill="#1BA5D7" opacity="1.000000" stroke="none" 
	d="
M219.995911,44.731167 
	C219.777267,44.913212 219.508591,44.768311 219.156448,44.346752 
	C219.318527,44.265663 219.609512,44.377033 219.995911,44.731167 
z"/>
<path fill="#1BA1D1" opacity="1.000000" stroke="none" 
	d="
M181.992950,25.714081 
	C181.805557,25.776783 181.524246,25.586712 181.135010,25.161100 
	C181.317734,25.104143 181.608383,25.282726 181.992950,25.714081 
z"/>
<path fill="#209AC8" opacity="1.000000" stroke="none" 
	d="
M119.508240,5.801635 
	C119.078522,11.381804 120.061836,12.593301 125.090462,13.141974 
	C126.927193,16.084824 128.125977,18.895916 130.096741,20.975342 
	C134.038620,25.134560 138.483475,28.811792 142.568924,32.841854 
	C146.054840,36.280518 149.212799,40.053143 152.719559,43.468872 
	C160.310364,50.862606 168.108963,58.043758 175.663574,65.473534 
	C178.926590,68.682617 181.687820,72.396240 184.869003,75.695526 
	C189.619705,80.622604 194.539734,85.386421 199.390839,90.216568 
	C199.507248,90.332481 199.732071,90.381714 199.786148,90.511940 
	C201.955307,95.736862 205.990631,99.480186 209.961655,103.658607 
	C204.152451,109.637283 202.368073,110.577339 196.062973,105.769127 
	C185.638184,97.819290 177.274567,87.887573 168.120071,78.700531 
	C159.707489,70.258072 150.831390,62.277668 142.413223,53.840546 
	C132.582886,43.988041 123.037415,33.851582 113.346474,23.859539 
	C110.773735,21.206867 108.120773,18.632000 105.558884,16.075525 
	C109.512856,13.163264 112.699127,10.816447 115.910652,8.100721 
	C117.020966,7.101882 118.106018,6.471951 119.508240,5.801635 
z"/>
<path fill="#1483A8" opacity="1.000000" stroke="none" 
	d="
M138.833221,148.688873 
	C132.997559,149.324585 126.994499,149.649796 120.529007,149.950531 
	C116.199883,146.972122 112.333206,144.018188 108.192505,140.854904 
	C108.378288,139.748810 108.616150,138.332611 109.043564,135.787842 
	C107.236534,136.525986 106.157829,137.028427 105.036812,137.404922 
	C104.145996,137.704086 102.736977,138.313538 102.386108,137.961014 
	C101.757904,137.329865 101.459602,136.051086 101.548538,135.091705 
	C101.735138,133.078857 102.262367,131.097610 102.319473,128.681900 
	C99.112099,125.051552 96.299324,121.781998 93.342308,118.648544 
	C89.269203,114.332367 85.106918,110.099548 80.944466,105.868774 
	C78.346840,103.228539 75.596008,100.735374 73.061554,98.037529 
	C69.411255,94.151894 66.068558,89.963989 62.274475,86.230370 
	C58.244686,82.264778 53.154995,79.207947 49.760326,74.804398 
	C44.571075,68.072929 37.744343,63.673569 30.999619,59.000252 
	C27.313007,58.349045 26.552984,56.554577 28.889194,53.225922 
	C28.905226,52.895012 28.939896,52.928829 29.243202,52.918533 
	C30.008108,52.519161 30.469706,52.130085 30.931301,51.741013 
	C34.655537,49.773636 38.379772,47.806259 42.453239,45.776493 
	C42.265106,46.872787 41.161591,48.109074 41.307571,49.174095 
	C41.616722,51.429520 42.260887,55.278599 43.331345,55.480133 
	C46.439919,56.065399 47.876816,57.723984 49.843147,59.907475 
	C54.525448,65.106903 59.956837,69.625160 64.988693,74.518257 
	C69.919525,79.313118 74.673050,84.290382 79.607582,89.081322 
	C86.914909,96.176010 94.499443,102.994736 101.619194,110.270302 
	C108.368332,117.167145 114.561012,124.605583 121.216690,131.598068 
	C124.521202,135.069809 128.376907,138.010513 131.866959,141.314285 
	C134.237778,143.558563 136.406647,146.016159 138.833221,148.688873 
z"/>
<path fill="#1787AE" opacity="1.000000" stroke="none" 
	d="
M59.557453,36.786476 
	C60.098797,37.047451 60.302990,37.370876 60.752754,37.847858 
	C60.803745,43.437382 57.412746,39.467781 55.110008,39.735645 
	C56.215645,38.685364 57.717972,37.767143 59.557453,36.786476 
z"/>
<path fill="#287B99" opacity="1.000000" stroke="none" 
	d="
M15.636753,59.016354 
	C14.546830,59.693367 13.106295,60.342918 11.292082,60.968437 
	C12.374315,60.292564 13.830228,59.640732 15.636753,59.016354 
z"/>
<path fill="#209AC8" opacity="1.000000" stroke="none" 
	d="
M123.518158,3.808966 
	C122.772568,4.496129 121.694893,5.218207 120.218460,5.886955 
	C120.941818,5.170376 122.063942,4.507130 123.518158,3.808966 
z"/>
<path fill="#287B99" opacity="1.000000" stroke="none" 
	d="
M7.966154,64.590958 
	C7.176636,64.966217 6.370119,64.938232 5.163995,64.839340 
	C5.511833,64.105446 6.259277,63.442471 7.297764,62.697121 
	C7.708922,63.139069 7.829038,63.663387 7.966154,64.590958 
z"/>
<path fill="#287B99" opacity="1.000000" stroke="none" 
	d="
M20.683411,56.961578 
	C20.511059,57.286587 20.039690,57.622673 19.262207,57.965542 
	C19.432194,57.639103 19.908293,57.305882 20.683411,56.961578 
z"/>
<path fill="#147FA4" opacity="1.000000" stroke="none" 
	d="
M30.625843,51.793694 
	C30.469706,52.130085 30.008108,52.519161 29.221210,52.917953 
	C29.370737,52.567242 29.845562,52.206810 30.625843,51.793694 
z"/>
<path fill="#287B99" opacity="1.000000" stroke="none" 
	d="
M10.664724,60.922985 
	C10.487810,61.254677 10.001580,61.594677 9.199394,61.923927 
	C9.374095,61.585880 9.864753,61.258591 10.664724,60.922985 
z"/>
<path fill="#287B99" opacity="1.000000" stroke="none" 
	d="
M18.656731,57.987137 
	C18.655693,58.230473 18.326511,58.502098 17.665249,58.792557 
	C17.664972,58.546070 17.996778,58.280750 18.656731,57.987137 
z"/>
<path fill="#1483A8" opacity="1.000000" stroke="none" 
	d="
M43.723129,45.045380 
	C43.757359,45.268589 43.515831,45.513866 43.013016,45.807301 
	C42.983616,45.592789 43.215496,45.330116 43.723129,45.045380 
z"/>
<path fill="#287B99" opacity="1.000000" stroke="none" 
	d="
M8.674245,61.896225 
	C8.712316,62.143753 8.475706,62.418739 7.954183,62.687798 
	C7.912700,62.429138 8.156132,62.176414 8.674245,61.896225 
z"/>
<path fill="#1382A8" opacity="1.000000" stroke="none" 
	d="
M36.000763,128.464813 
	C40.123215,131.577820 46.844025,132.551361 47.396255,139.848419 
	C47.462921,140.729340 50.805950,141.362320 51.910774,142.339264 
	C54.709122,144.534271 57.507473,146.729263 60.810211,149.202545 
	C61.876446,149.987213 62.438301,150.493607 63.036911,151.343994 
	C66.715675,155.125336 70.357681,158.562668 74.291183,162.142853 
	C76.055214,163.857132 77.527756,165.428574 79.037018,167.343994 
	C82.715714,171.125336 86.357704,174.562668 90.291183,178.142853 
	C92.055214,179.857132 93.527756,181.428574 95.037018,183.343994 
	C98.715714,187.125336 102.357704,190.562668 106.291183,194.142853 
	C108.055214,195.857132 109.527763,197.428574 111.037155,199.344589 
	C114.380081,203.481964 116.545853,208.483063 122.111389,210.216431 
	C122.423271,210.702682 122.682343,210.891846 123.000305,211.000336 
	C123.372963,213.997910 125.189507,217.660080 119.395981,217.997864 
	C116.116264,216.933670 113.220779,215.867966 109.721855,214.580170 
	C107.093597,211.563629 104.019630,207.586685 100.492599,204.063232 
	C82.924339,186.513062 65.243889,169.075119 47.585716,151.615051 
	C43.993675,148.063309 40.327667,144.586365 36.350060,141.037170 
	C36.002811,136.975525 36.001255,132.951675 36.000763,128.464813 
z"/>
<path fill="#1585AC" opacity="1.000000" stroke="none" 
	d="
M95.000305,183.000000 
	C93.527756,181.428574 92.055214,179.857132 90.252647,177.793472 
	C87.725639,172.336655 83.942657,169.053696 79.000305,167.000000 
	C77.527756,165.428574 76.055214,163.857132 74.252647,161.793472 
	C71.725609,156.336624 67.942650,153.053574 63.000153,151.000000 
	C62.438301,150.493607 61.876446,149.987213 61.157158,149.240112 
	C62.303291,147.238632 63.606865,145.477875 64.954758,143.358917 
	C68.064774,146.232483 71.063240,149.531311 74.207436,152.684814 
	C90.540932,169.066681 106.947586,185.375839 123.222397,201.815628 
	C125.190811,203.803986 126.517120,206.428009 128.947479,209.914215 
	C132.026764,210.253860 138.816284,208.470093 137.000381,217.558426 
	C135.355789,217.996338 133.710953,217.996338 131.639450,217.996338 
	C131.786911,212.395309 127.561485,212.013351 123.382797,211.046997 
	C122.682343,210.891846 122.423271,210.702682 122.072853,209.867065 
	C119.725578,204.336716 115.942673,201.053680 111.000305,199.000000 
	C109.527763,197.428574 108.055214,195.857132 106.252647,193.793472 
	C103.725639,188.336655 99.942657,185.053696 95.000305,183.000000 
z"/>
<path fill="#1A89B1" opacity="1.000000" stroke="none" 
	d="
M85.751282,147.986740 
	C86.254372,148.485046 86.517403,148.982941 86.890060,149.740417 
	C85.821442,150.112869 84.643188,150.225739 83.464935,150.338608 
	C83.762451,149.593842 84.059967,148.849075 84.694283,148.045471 
	C85.031082,147.986649 85.511215,147.986328 85.751282,147.986740 
z"/>
<path fill="#1A89B1" opacity="1.000000" stroke="none" 
	d="
M92.622528,159.548737 
	C93.057358,159.661392 93.321022,159.937775 93.584686,160.214142 
	C93.470268,160.323257 93.355850,160.432373 93.241432,160.541489 
	C92.978081,160.265152 92.714729,159.988800 92.622528,159.548737 
z"/>
<path fill="#1281A8" opacity="1.000000" stroke="none" 
	d="
M30.994671,59.365349 
	C37.744343,63.673569 44.571075,68.072929 49.760326,74.804398 
	C53.154995,79.207947 58.244686,82.264778 62.274475,86.230370 
	C66.068558,89.963989 69.411255,94.151894 73.061554,98.037529 
	C75.596008,100.735374 78.346840,103.228539 80.944466,105.868774 
	C85.106918,110.099548 89.269203,114.332367 93.342308,118.648544 
	C96.299324,121.781998 99.112099,125.051552 101.994553,128.629913 
	C96.275085,133.488663 91.658157,132.626846 87.760765,126.747505 
	C86.461151,124.787003 84.536652,122.718773 82.436218,121.931816 
	C79.179123,120.711510 78.659607,118.701607 79.279785,115.381241 
	C79.877701,114.625839 80.195831,114.325340 80.513969,114.024849 
	C80.308395,113.847389 80.102829,113.669922 79.897255,113.492462 
	C79.598167,113.994972 79.299088,114.497490 79.000000,115.000000 
	C75.694710,115.410446 73.199783,114.602623 71.933990,111.078613 
	C71.462555,109.766136 69.984467,108.849266 69.156860,107.622810 
	C67.886139,105.739677 66.780853,103.744926 65.087090,100.938950 
	C51.056236,92.003746 40.400368,77.941383 28.049911,65.835068 
	C29.187529,63.472767 30.088627,61.601604 30.994671,59.365349 
z"/>
<path fill="#1EACE0" opacity="1.000000" stroke="none" 
	d="
M233.198914,62.782288 
	C232.959610,62.230659 233.012054,61.740555 233.064514,61.250454 
	C233.502365,61.362381 233.940216,61.474308 234.378067,61.586231 
	C234.082275,62.005428 233.786484,62.424622 233.198914,62.782288 
z"/>
<path fill="#1AA6D9" opacity="1.000000" stroke="none" 
	d="
M216.859436,125.283279 
	C217.344757,124.937111 217.602829,124.763763 217.976532,124.358932 
	C218.543839,124.129585 218.959412,124.077957 219.697235,124.417877 
	C219.931778,133.380157 225.898819,137.732162 231.993820,141.994995 
	C231.998550,143.062088 232.003281,144.129196 232.010620,145.596313 
	C232.006958,151.018463 232.000702,156.040604 231.990356,161.529022 
	C228.984543,159.323975 226.039154,156.585846 222.968216,153.996628 
	C218.111481,149.901733 213.061264,146.029633 208.316391,141.811844 
	C206.272369,139.994873 204.787018,137.549377 202.440186,134.634705 
	C204.235214,134.954468 205.144241,135.116409 205.073837,135.103867 
	C208.625946,132.093231 211.751633,129.444016 214.949234,126.468651 
	C215.570206,125.931618 216.119247,125.720734 216.859436,125.283279 
z"/>
<path fill="#1C9DCD" opacity="1.000000" stroke="none" 
	d="
M245.988068,124.471252 
	C245.990097,123.254814 245.995895,122.502144 246.005447,121.373199 
	C248.002808,122.323761 250.008072,123.633507 251.986069,124.983200 
	C253.411545,125.955864 254.800720,126.981728 256.567596,127.988907 
	C256.936859,133.341263 256.944611,138.688583 256.574677,144.504303 
	C254.907639,143.875137 253.706299,142.645828 252.307983,141.711258 
	C250.283493,140.358170 248.116455,139.218353 246.010223,137.987549 
	C246.004105,133.636703 245.997971,129.285873 245.988068,124.471252 
z"/>
<path fill="#2797C1" opacity="1.000000" stroke="none" 
	d="
M246.006195,138.448212 
	C248.116455,139.218353 250.283493,140.358170 252.307983,141.711258 
	C253.706299,142.645828 254.907639,143.875137 256.559875,144.969543 
	C256.940948,148.998703 256.959167,153.031036 256.964966,157.525070 
	C251.965637,156.916336 246.042679,150.082962 246.003906,145.337189 
	C245.986404,143.194565 246.001724,141.051651 246.006195,138.448212 
z"/>
<path fill="#1AAADE" opacity="1.000000" stroke="none" 
	d="
M231.997574,141.526886 
	C225.898819,137.732162 219.931778,133.380157 220.011581,124.405434 
	C220.314499,123.887398 220.572922,123.700768 220.902130,123.233971 
	C221.329727,122.917107 221.591110,122.743217 221.951859,122.315521 
	C222.628204,121.933624 223.162140,121.740875 223.892212,121.338959 
	C224.621796,120.929863 225.155228,120.729935 225.876587,120.311569 
	C226.604614,119.899338 227.144699,119.705536 227.869507,119.286591 
	C228.351349,118.939011 228.606644,118.757698 228.959503,118.327606 
	C232.225067,117.731270 232.014618,119.889877 232.011765,121.909500 
	C232.002762,128.292603 232.004028,134.675690 231.997574,141.526886 
z"/>
<path fill="#1684A9" opacity="1.000000" stroke="none" 
	d="
M111.037155,199.344589 
	C115.942673,201.053680 119.725578,204.336716 121.961159,209.650620 
	C116.545853,208.483063 114.380081,203.481964 111.037155,199.344589 
z"/>
<path fill="#1684A9" opacity="1.000000" stroke="none" 
	d="
M95.037018,183.343994 
	C99.942657,185.053696 103.725639,188.336655 105.961166,193.650620 
	C102.357704,190.562668 98.715714,187.125336 95.037018,183.343994 
z"/>
<path fill="#1684A9" opacity="1.000000" stroke="none" 
	d="
M79.037018,167.343994 
	C83.942657,169.053696 87.725639,172.336655 89.961166,177.650620 
	C86.357704,174.562668 82.715714,171.125336 79.037018,167.343994 
z"/>
<path fill="#1684A9" opacity="1.000000" stroke="none" 
	d="
M63.036911,151.343994 
	C67.942650,153.053574 71.725609,156.336624 73.961166,161.650620 
	C70.357681,158.562668 66.715675,155.125336 63.036911,151.343994 
z"/>
<path fill="#147FA4" opacity="1.000000" stroke="none" 
	d="
M79.279785,114.963165 
	C79.299088,114.497490 79.598167,113.994972 79.897255,113.492462 
	C80.102829,113.669922 80.308395,113.847389 80.513969,114.024849 
	C80.195831,114.325340 79.877701,114.625839 79.279785,114.963165 
z"/>
</svg>